SplineFontDB: 3.2
FontName: Sassoon.Primary.Bold
FullName: Sassoon.Primary.Bold
FamilyName: Sassoon
Weight: Bold
Copyright: (c) RISC OS Developments Ltd, released under Apache License 2.0
Version: 1
ItalicAngle: 0
UnderlinePosition: 0
UnderlineWidth: 0
Ascent: 800
Descent: 200
InvalidEm: 0
LayerCount: 2
Layer: 0 0 "Back" 1
Layer: 1 0 "Fore" 0
OS2Version: 0
OS2_WeightWidthSlopeOnly: 0
OS2_UseTypoMetrics: 0
CreationTime: 1622737881
ModificationTime: 1622737883
OS2TypoAscent: 0
OS2TypoAOffset: 1
OS2TypoDescent: 0
OS2TypoDOffset: 1
OS2TypoLinegap: 0
OS2WinAscent: 0
OS2WinAOffset: 1
OS2WinDescent: 0
OS2WinDOffset: 1
HheadAscent: 0
HheadAOffset: 1
HheadDescent: 0
HheadDOffset: 1
OS2Vendor: 'PfEd'
Lookup: 258 0 0 "'kern' Horizontal Kerning in Latin lookup 0" { "'kern' Horizontal Kerning in Latin lookup 0 subtable"  } ['kern' ('latn' <'dflt' > ) ]
DEI: 91125
Encoding: Custom
UnicodeInterp: none
NameList: AGL For New Fonts
DisplaySize: -24
AntiAlias: 1
FitToEm: 0
BeginChars: 416 384

StartChar: uni0007
Encoding: 7 7 6
Width: 672
VWidth: 0
Flags: HMW
LayerCount: 2
Fore
SplineSet
149 537 m 0
 283 671 539 659 631 538 c 0
 557 440 l 0
 484 533 357 543 285 471 c 0
 185 371 179 94 351 94 c 0
 415 94 473 139 480 216 c 0
 344 216 l 0
 351 329 l 0
 624 329 l 0
 602 -75 l 0
 468 -75 l 0
 474 32 l 0
 386 -33 226 -34 133 59 c 0
 23 169 21 409 149 537 c 0
EndSplineSet
EndChar

StartChar: uni0009
Encoding: 9 9 8
Width: 270
VWidth: 0
Flags: HMW
LayerCount: 2
Fore
SplineSet
62 0 m 0
 96 621 l 0
 248 621 l 0
 214 0 l 0
 62 0 l 0
EndSplineSet
EndChar

StartChar: uni000A
Encoding: 10 10 9
Width: 510
VWidth: 0
Flags: HMW
LayerCount: 2
Fore
SplineSet
75 35 m 0
 26 84 25 154 36 228 c 0
 167 228 l 0
 154 158 160 91 219 91 c 0
 270 91 287 130 291 204 c 0
 314 621 l 0
 466 621 l 0
 442 190 l 0
 439 133 430 81 388 40 c 0
 322 -26 145 -35 75 35 c 0
EndSplineSet
EndChar

StartChar: exclam
Encoding: 33 33 32
Width: 350
VWidth: 0
Flags: HMW
LayerCount: 2
Fore
SplineSet
252 125 m 0
 283 94 283 39 252 8 c 0
 221 -22 167 -22 136 8 c 0
 105 39 105 94 136 125 c 0
 167 156 221 156 252 125 c 0
147 192 m 0
 163 621 l 0
 295 621 l 0
 260 192 l 0
 147 192 l 0
EndSplineSet
EndChar

StartChar: quotedbl
Encoding: 34 34 33
Width: 308
VWidth: 0
Flags: HMW
LayerCount: 2
Fore
SplineSet
254 394 m 0
 254 345 166 332 124 378 c 0
 74 427 98 551 201 628 c 0
 280 599 l 0
 154 463 254 436 254 394 c 0
EndSplineSet
EndChar

StartChar: numbersign
Encoding: 35 35 34
Width: 308
VWidth: 0
Flags: HMW
LayerCount: 2
Fore
SplineSet
109 589 m 0
 109 638 195 651 236 605 c 0
 285 556 261 432 160 355 c 0
 83 384 l 0
 206 520 109 547 109 589 c 0
EndSplineSet
EndChar

StartChar: quotesingle
Encoding: 39 39 38
Width: 500
VWidth: 0
Flags: HMW
LayerCount: 2
Fore
SplineSet
389 145 m 0
 287 145 225 255 151 255 c 0
 112 255 95 227 92 157 c 0
 25 157 l 0
 25 290 59 370 157 370 c 0
 240 370 337 252 395 252 c 0
 432 252 448 275 448 350 c 0
 518 350 l 0
 518 224 484 145 389 145 c 0
EndSplineSet
EndChar

StartChar: parenleft
Encoding: 40 40 39
Width: 361
VWidth: 0
Flags: HMW
LayerCount: 2
Fore
SplineSet
369 -77 m 0
 254 -68 179 -21 144 50 c 0
 90 159 99 412 164 541 c 0
 208 629 253 672 412 687 c 0
 408 585 l 0
 219 577 177 30 372 24 c 0
 369 -77 l 0
EndSplineSet
EndChar

StartChar: parenright
Encoding: 41 41 40
Width: 361
VWidth: 0
Flags: HMW
LayerCount: 2
Fore
SplineSet
31 687 m 0
 146 678 221 631 256 560 c 0
 310 451 301 198 236 69 c 0
 192 -19 147 -62 -12 -77 c 0
 -8 25 l 0
 181 33 223 580 28 586 c 0
 31 687 l 0
EndSplineSet
EndChar

StartChar: asterisk
Encoding: 42 42 41
Width: 397
VWidth: 0
Flags: HMW
LayerCount: 2
Fore
SplineSet
114 570 m 0
 173 533 190 524 216 492 c 0
 209 528 211 538 215 621 c 0
 274 621 l 0
 268 528 270 527 255 489 c 0
 284 515 289 515 379 561 c 0
 402 510 l 0
 336 475 319 464 269 453 c 0
 307 445 322 433 385 393 c 0
 350 346 l 0
 281 388 267 400 245 423 c 0
 255 393 252 374 247 293 c 0
 189 293 l 0
 194 367 195 396 209 424 c 0
 184 397 171 394 87 350 c 0
 64 402 l 0
 135 439 160 452 197 458 c 0
 152 470 145 478 79 523 c 0
 114 570 l 0
EndSplineSet
EndChar

StartChar: plus
Encoding: 43 43 42
Width: 500
VWidth: 0
Flags: HMW
LayerCount: 2
Fore
SplineSet
25 52 m 0
 64 83 110 164 132 234 c 0
 47 234 l 0
 47 333 l 0
 147 333 l 0
 159 445 163 524 223 584 c 0
 293 654 454 641 517 598 c 0
 512 475 l 0
 467 526 373 538 330 495 c 0
 294 459 293 410 283 333 c 0
 420 333 l 0
 420 234 l 0
 266 234 l 0
 251 186 221 139 199 113 c 0
 491 113 l 0
 484 0 l 0
 25 0 l 0
 25 52 l 0
EndSplineSet
EndChar

StartChar: comma
Encoding: 44 44 43
Width: 311
VWidth: 0
Flags: HMW
LayerCount: 2
Fore
SplineSet
98 107 m 0
 98 161 187 175 234 128 c 0
 292 70 269 -45 150 -130 c 0
 63 -100 l 0
 200 35 98 42 98 107 c 0
EndSplineSet
EndChar

StartChar: hyphen
Encoding: 45 45 44
Width: 261
VWidth: 0
Flags: HMW
LayerCount: 2
Fore
SplineSet
30 178 m 0
 34 277 l 0
 261 277 l 0
 257 178 l 0
 30 178 l 0
EndSplineSet
EndChar

StartChar: period
Encoding: 46 46 45
Width: 311
VWidth: 0
Flags: HMW
LayerCount: 2
Fore
SplineSet
217 125 m 0
 248 94 248 40 217 9 c 0
 186 -21 132 -21 101 9 c 0
 70 40 70 94 101 125 c 0
 132 156 186 156 217 125 c 0
EndSplineSet
EndChar

StartChar: zero
Encoding: 48 48 47
Width: 500
VWidth: 0
Flags: HMW
LayerCount: 2
Fore
SplineSet
338 465 m 0
 309 522 245 516 218 462 c 0
 188 402 178 207 202 158 c 0
 230 101 295 104 320 154 c 0
 353 220 365 411 338 465 c 0
457 532 m 0
 514 418 499 142 401 44 c 0
 324 -33 151 -44 90 79 c 0
 35 188 38 473 144 579 c 0
 218 653 391 664 457 532 c 0
EndSplineSet
EndChar

StartChar: one
Encoding: 49 49 48
Width: 500
VWidth: 0
Flags: HMW
LayerCount: 2
Fore
SplineSet
159 406 m 0
 99 496 l 0
 146 529 202 571 248 621 c 0
 375 621 l 0
 341 0 l 0
 209 0 l 0
 235 475 l 0
 209 448 184 428 159 406 c 0
EndSplineSet
EndChar

StartChar: two
Encoding: 50 50 49
Width: 500
VWidth: 0
Flags: HMW
LayerCount: 2
Fore
SplineSet
36 79 m 0
 266 296 337 381 337 444 c 0
 337 520 220 569 140 418 c 0
 56 477 l 0
 139 702 485 673 485 461 c 0
 485 365 414 262 226 113 c 0
 465 113 l 0
 459 0 l 0
 32 0 l 0
 36 79 l 0
EndSplineSet
EndChar

StartChar: three
Encoding: 51 51 50
Width: 500
VWidth: 0
Flags: HMW
LayerCount: 2
Fore
SplineSet
372 13 m 0
 300 -23 103 -43 10 87 c 0
 76 169 l 0
 150 77 252 74 297 119 c 0
 327 149 330 197 301 226 c 0
 273 254 226 265 142 265 c 0
 145 374 l 0
 169 372 269 366 308 405 c 0
 337 434 334 478 308 504 c 0
 276 536 195 540 114 457 c 0
 67 550 l 0
 158 653 354 657 429 582 c 0
 489 522 500 371 350 320 c 0
 350 318 l 0
 489 302 512 83 372 13 c 0
EndSplineSet
EndChar

StartChar: four
Encoding: 52 52 51
Width: 500
VWidth: 0
Flags: HMW
LayerCount: 2
Fore
SplineSet
36 153 m 0
 41 256 l 0
 271 621 l 0
 414 621 l 0
 187 257 l 0
 299 257 l 0
 306 390 l 0
 438 390 l 0
 432 257 l 0
 501 257 l 0
 496 153 l 0
 426 153 l 0
 417 0 l 0
 285 0 l 0
 294 153 l 0
 36 153 l 0
EndSplineSet
EndChar

StartChar: five
Encoding: 53 53 52
Width: 500
VWidth: 0
Flags: HMW
LayerCount: 2
Fore
SplineSet
310 128 m 0
 341 159 346 223 313 256 c 0
 273 296 208 295 147 243 c 0
 77 290 l 0
 102 621 l 0
 471 621 l 0
 464 508 l 0
 218 508 l 0
 207 378 l 0
 270 413 368 403 421 350 c 0
 498 273 485 122 416 53 c 0
 318 -45 106 -32 12 73 c 0
 68 163 l 0
 167 75 265 83 310 128 c 0
EndSplineSet
EndChar

StartChar: six
Encoding: 54 54 53
Width: 500
VWidth: 0
Flags: HMW
LayerCount: 2
Fore
SplineSet
106 45 m 0
 29 122 -18 332 280 621 c 0
 444 621 l 0
 361 549 273 443 233 363 c 0
 298 409 390 398 442 346 c 0
 515 273 512 128 431 47 c 0
 350 -34 186 -35 106 45 c 0
335 257 m 0
 303 289 238 276 199 237 c 0
 188 193 194 151 218 127 c 0
 246 99 300 98 331 129 c 0
 361 159 367 225 335 257 c 0
EndSplineSet
EndChar

StartChar: seven
Encoding: 55 55 54
Width: 500
VWidth: 0
Flags: HMW
LayerCount: 2
Fore
SplineSet
348 508 m 0
 67 508 l 0
 74 621 l 0
 509 621 l 0
 503 523 l 0
 229 0 l 0
 82 0 l 0
 348 508 l 0
EndSplineSet
EndChar

StartChar: eight
Encoding: 56 56 55
Width: 500
VWidth: 0
Flags: HMW
LayerCount: 2
Fore
SplineSet
357 166 m 0
 357 200 330 226 263 252 c 0
 164 223 162 153 194 121 c 0
 235 80 357 89 357 166 c 0
343 512 m 0
 303 552 202 537 202 469 c 0
 202 440 227 414 280 390 c 0
 369 425 373 482 343 512 c 0
78 46 m 0
 9 115 3 257 171 322 c 0
 171 324 l 0
 32 394 56 523 110 577 c 0
 182 649 387 653 460 580 c 0
 516 524 522 399 374 329 c 0
 374 327 l 0
 518 269 517 118 449 50 c 0
 360 -39 153 -29 78 46 c 0
EndSplineSet
EndChar

StartChar: nine
Encoding: 57 57 56
Width: 500
VWidth: 0
Flags: HMW
LayerCount: 2
Fore
SplineSet
444 577 m 0
 523 498 536 328 299 0 c 0
 142 0 l 0
 199 76 258 171 299 251 c 0
 237 217 151 232 99 284 c 0
 34 349 27 485 109 567 c 0
 194 650 364 657 444 577 c 0
210 371 m 0
 241 340 298 346 328 376 c 0
 359 407 362 467 332 497 c 0
 305 524 248 523 218 493 c 0
 188 463 182 399 210 371 c 0
EndSplineSet
EndChar

StartChar: less
Encoding: 60 60 59
Width: 284
VWidth: 0
Flags: HMW
LayerCount: 2
Fore
SplineSet
274 523 m 0
 149 307 l 0
 80 307 l 0
 140 572 l 0
 150 614 177 637 215 637 c 0
 266 637 312 590 274 523 c 0
EndSplineSet
EndChar

StartChar: equal
Encoding: 61 61 60
Width: 500
VWidth: 0
Flags: HMW
LayerCount: 2
Fore
SplineSet
20 316 m 0
 20 436 l 0
 517 436 l 0
 517 316 l 0
 20 316 l 0
20 142 m 0
 20 262 l 0
 517 262 l 0
 517 142 l 0
 20 142 l 0
EndSplineSet
EndChar

StartChar: question
Encoding: 63 63 62
Width: 422
VWidth: 0
Flags: HMW
LayerCount: 2
Fore
SplineSet
238 125 m 0
 269 94 269 39 238 8 c 0
 207 -22 153 -22 122 8 c 0
 91 39 91 94 122 125 c 0
 153 156 207 156 238 125 c 0
299 450 m 0
 299 511 227 557 78 489 c 0
 68 598 l 0
 273 682 439 606 439 452 c 0
 439 354 372 291 256 277 c 0
 250 192 l 0
 125 192 l 0
 137 379 l 0
 181 374 299 368 299 450 c 0
EndSplineSet
EndChar

StartChar: at
Encoding: 64 64 63
Width: 0
VWidth: 0
Flags: HMW
LayerCount: 2
Fore
SplineSet
259 507 m 0
 328 635 l 0
 509 635 l 0
 355 507 l 0
 259 507 l 0
EndSplineSet
EndChar

StartChar: A
Encoding: 65 65 64
Width: 627
VWidth: 0
Flags: HMW
LayerCount: 2
Fore
SplineSet
153 0 m 0
 0 0 l 0
 286 621 l 0
 425 621 l 0
 627 0 l 0
 474 0 l 0
 424 160 l 0
 223 160 l 0
 153 0 l 0
272 273 m 0
 389 273 l 0
 340 429 l 0
 272 273 l 0
EndSplineSet
EndChar

StartChar: B
Encoding: 66 66 65
Width: 609
VWidth: 0
Flags: HMW
LayerCount: 2
Fore
SplineSet
389 413 m 0
 411 435 417 479 393 503 c 0
 369 527 314 524 263 518 c 0
 255 384 l 0
 323 384 363 387 389 413 c 0
400 140 m 0
 426 166 425 217 402 240 c 0
 373 269 332 271 249 271 c 0
 240 112 l 0
 285 105 363 103 400 140 c 0
543 64 m 0
 461 -18 253 -15 82 6 c 0
 116 625 l 0
 283 631 451 648 528 571 c 0
 590 509 572 377 456 338 c 0
 456 336 l 0
 614 302 607 128 543 64 c 0
EndSplineSet
EndChar

StartChar: C
Encoding: 67 67 66
Width: 580
VWidth: 0
Flags: HMW
LayerCount: 2
Fore
SplineSet
159 552 m 0
 269 662 492 667 588 527 c 0
 521 440 l 0
 467 520 341 540 271 470 c 0
 192 391 198 206 258 146 c 0
 316 88 434 96 520 194 c 0
 576 98 l 0
 455 -44 242 -44 142 56 c 0
 33 165 39 432 159 552 c 0
EndSplineSet
EndChar

StartChar: D
Encoding: 68 68 67
Width: 694
VWidth: 0
Flags: HMW
LayerCount: 2
Fore
SplineSet
437 164 m 0
 505 232 515 406 449 472 c 0
 411 510 345 522 265 512 c 0
 243 112 l 0
 285 105 372 101 437 164 c 0
589 539 m 0
 687 441 688 214 569 95 c 0
 463 -11 271 -17 85 0 c 0
 119 622 l 0
 300 636 481 647 589 539 c 0
EndSplineSet
EndChar

StartChar: E
Encoding: 69 69 68
Width: 475
VWidth: 0
Flags: HMW
LayerCount: 2
Fore
SplineSet
72 0 m 0
 106 621 l 0
 478 621 l 0
 472 508 l 0
 252 508 l 0
 245 374 l 0
 436 374 l 0
 430 261 l 0
 238 261 l 0
 230 113 l 0
 450 113 l 0
 444 0 l 0
 72 0 l 0
EndSplineSet
EndChar

StartChar: F
Encoding: 70 70 69
Width: 474
VWidth: 0
Flags: HMW
LayerCount: 2
Fore
SplineSet
70 0 m 0
 104 621 l 0
 475 621 l 0
 469 508 l 0
 250 508 l 0
 242 353 l 0
 433 353 l 0
 427 240 l 0
 235 240 l 0
 222 0 l 0
 70 0 l 0
EndSplineSet
EndChar

StartChar: G
Encoding: 71 71 70
Width: 667
VWidth: 0
Flags: HMW
LayerCount: 2
Fore
SplineSet
530 52 m 0
 449 -29 252 -46 147 59 c 0
 37 169 35 409 163 537 c 0
 297 671 553 659 645 538 c 0
 571 440 l 0
 498 533 371 543 299 471 c 0
 219 391 201 204 277 128 c 0
 315 90 388 86 425 123 c 0
 451 149 460 178 455 216 c 0
 358 216 l 0
 365 329 l 0
 666 329 l 0
 659 216 l 0
 586 216 l 0
 594 163 567 89 530 52 c 0
EndSplineSet
EndChar

StartChar: H
Encoding: 72 72 71
Width: 717
VWidth: 0
Flags: HMW
LayerCount: 2
Fore
SplineSet
78 0 m 0
 112 621 l 0
 264 621 l 0
 250 370 l 0
 515 370 l 0
 529 621 l 0
 681 621 l 0
 647 0 l 0
 495 0 l 0
 509 257 l 0
 244 257 l 0
 232 0 l 0
 78 0 l 0
EndSplineSet
EndChar

StartChar: I
Encoding: 73 73 72
Width: 325
VWidth: 0
Flags: HMW
LayerCount: 2
Fore
SplineSet
26 0 m 0
 32 113 l 0
 94 113 l 0
 116 508 l 0
 54 508 l 0
 60 621 l 0
 339 621 l 0
 333 508 l 0
 268 508 l 0
 246 113 l 0
 311 113 l 0
 305 0 l 0
 26 0 l 0
EndSplineSet
EndChar

StartChar: J
Encoding: 74 74 73
Width: 508
VWidth: 0
Flags: HMW
LayerCount: 2
Fore
SplineSet
308 508 m 0
 209 508 l 0
 215 621 l 0
 554 621 l 0
 548 508 l 0
 460 508 l 0
 442 190 l 0
 439 133 430 81 388 40 c 0
 322 -26 145 -35 75 35 c 0
 26 84 25 154 36 228 c 0
 167 228 l 0
 154 158 160 91 219 91 c 0
 270 91 287 130 291 204 c 0
 308 508 l 0
EndSplineSet
EndChar

StartChar: K
Encoding: 75 75 74
Width: 623
VWidth: 0
Flags: HMW
LayerCount: 2
Fore
SplineSet
271 621 m 0
 256 340 l 0
 472 621 l 0
 655 621 l 0
 409 319 l 0
 651 0 l 0
 463 0 l 0
 253 286 l 0
 237 0 l 0
 85 0 l 0
 119 621 l 0
 271 621 l 0
EndSplineSet
EndChar

StartChar: L
Encoding: 76 76 75
Width: 561
VWidth: 0
Flags: HMW
LayerCount: 2
Fore
SplineSet
84 0 m 0
 118 621 l 0
 270 621 l 0
 242 113 l 0
 524 113 l 0
 518 0 l 0
 84 0 l 0
EndSplineSet
EndChar

StartChar: M
Encoding: 77 77 76
Width: 839
VWidth: 0
Flags: HMW
LayerCount: 2
Fore
SplineSet
253 366 m 0
 233 0 l 0
 81 0 l 0
 115 621 l 0
 282 621 l 0
 437 310 l 0
 644 621 l 0
 800 621 l 0
 766 0 l 0
 614 0 l 0
 634 359 l 0
 488 143 l 0
 364 143 l 0
 253 366 l 0
EndSplineSet
EndChar

StartChar: N
Encoding: 78 78 77
Width: 725
VWidth: 0
Flags: HMW
LayerCount: 2
Fore
SplineSet
513 218 m 0
 535 621 l 0
 687 621 l 0
 653 0 l 0
 494 0 l 0
 255 397 l 0
 233 0 l 0
 81 0 l 0
 115 621 l 0
 272 621 l 0
 513 218 l 0
EndSplineSet
EndChar

StartChar: O
Encoding: 79 79 78
Width: 738
VWidth: 0
Flags: HMW
LayerCount: 2
Fore
SplineSet
470 144 m 0
 542 216 553 411 489 475 c 0
 445 519 359 522 305 468 c 0
 233 396 224 198 288 134 c 0
 328 94 414 88 470 144 c 0
190 555 m 0
 290 655 520 661 617 564 c 0
 723 458 731 211 590 70 c 0
 480 -40 257 -40 155 62 c 0
 57 160 41 406 190 555 c 0
EndSplineSet
EndChar

StartChar: P
Encoding: 80 80 79
Width: 598
VWidth: 0
Flags: HMW
LayerCount: 2
Fore
SplineSet
399 398 m 0
 424 423 426 472 398 500 c 0
 376 522 304 520 261 515 c 0
 254 374 l 0
 271 371 363 362 399 398 c 0
533 323 m 0
 465 255 343 256 247 263 c 0
 233 0 l 0
 81 0 l 0
 115 625 l 0
 230 628 449 655 539 565 c 0
 604 500 589 381 533 323 c 0
EndSplineSet
EndChar

StartChar: Q
Encoding: 81 81 80
Width: 737
VWidth: 0
Flags: HMW
LayerCount: 2
Fore
SplineSet
652 -23 m 0
 561 -96 l 0
 478 3 l 0
 402 -24 245 -29 155 61 c 0
 57 159 41 406 190 555 c 0
 290 655 520 661 617 564 c 0
 723 458 733 202 582 61 c 0
 652 -23 l 0
491 170 m 0
 536 237 553 411 489 475 c 0
 445 519 359 522 305 468 c 0
 233 396 224 197 288 133 c 0
 320 101 369 100 394 104 c 0
 345 163 l 0
 436 236 l 0
 491 170 l 0
EndSplineSet
EndChar

StartChar: R
Encoding: 82 82 81
Width: 601
VWidth: 0
Flags: HMW
LayerCount: 2
Fore
SplineSet
246 252 m 0
 233 0 l 0
 81 0 l 0
 115 625 l 0
 230 628 449 655 539 565 c 0
 604 500 589 381 533 323 c 0
 495 285 446 271 397 264 c 0
 597 0 l 0
 421 0 l 0
 246 252 l 0
399 398 m 0
 424 423 426 472 398 500 c 0
 376 522 304 520 261 515 c 0
 254 374 l 0
 271 371 363 362 399 398 c 0
EndSplineSet
EndChar

StartChar: S
Encoding: 83 83 82
Width: 492
VWidth: 0
Flags: HMW
LayerCount: 2
Fore
SplineSet
314 148 m 0
 314 245 69 287 69 462 c 0
 69 639 289 672 478 592 c 0
 467 467 l 0
 340 535 237 533 237 454 c 0
 237 364 472 323 472 163 c 0
 472 -12 257 -65 29 38 c 0
 50 151 l 0
 234 58 314 91 314 148 c 0
EndSplineSet
EndChar

StartChar: T
Encoding: 84 84 83
Width: 491
VWidth: 0
Flags: HMW
LayerCount: 2
Fore
SplineSet
174 0 m 0
 202 508 l 0
 42 508 l 0
 48 621 l 0
 520 621 l 0
 514 508 l 0
 354 508 l 0
 326 0 l 0
 174 0 l 0
EndSplineSet
EndChar

StartChar: U
Encoding: 85 85 84
Width: 717
VWidth: 0
Flags: HMW
LayerCount: 2
Fore
SplineSet
583 58 m 0
 489 -36 249 -39 159 51 c 0
 101 109 91 180 96 273 c 0
 115 621 l 0
 267 621 l 0
 247 253 l 0
 241 147 299 103 370 103 c 0
 470 103 504 179 509 269 c 0
 528 621 l 0
 680 621 l 0
 661 273 l 0
 656 185 634 109 583 58 c 0
EndSplineSet
EndChar

StartChar: V
Encoding: 86 86 85
Width: 658
VWidth: 0
Flags: HMW
LayerCount: 2
Fore
SplineSet
71 621 m 0
 228 621 l 0
 356 191 l 0
 554 621 l 0
 711 621 l 0
 403 0 l 0
 273 0 l 0
 71 621 l 0
EndSplineSet
EndChar

StartChar: W
Encoding: 87 87 86
Width: 985
VWidth: 0
Flags: HMW
LayerCount: 2
Fore
SplineSet
705 177 m 0
 862 621 l 0
 1020 621 l 0
 768 0 l 0
 621 0 l 0
 516 436 l 0
 330 0 l 0
 194 0 l 0
 53 621 l 0
 210 621 l 0
 283 202 l 0
 458 621 l 0
 607 621 l 0
 705 177 l 0
EndSplineSet
EndChar

StartChar: X
Encoding: 88 88 87
Width: 616
VWidth: 0
Flags: HMW
LayerCount: 2
Fore
SplineSet
-4 0 m 0
 247 315 l 0
 56 621 l 0
 224 621 l 0
 339 421 l 0
 487 621 l 0
 660 621 l 0
 420 314 l 0
 619 0 l 0
 447 0 l 0
 325 209 l 0
 170 0 l 0
 -4 0 l 0
EndSplineSet
EndChar

StartChar: Y
Encoding: 89 89 88
Width: 579
VWidth: 0
Flags: HMW
LayerCount: 2
Fore
SplineSet
381 283 m 0
 365 0 l 0
 213 0 l 0
 229 292 l 0
 43 621 l 0
 202 621 l 0
 314 391 l 0
 458 621 l 0
 623 621 l 0
 381 283 l 0
EndSplineSet
EndChar

StartChar: Z
Encoding: 90 90 89
Width: 540
VWidth: 0
Flags: HMW
LayerCount: 2
Fore
SplineSet
1 0 m 0
 5 65 l 0
 360 508 l 0
 54 508 l 0
 60 621 l 0
 573 621 l 0
 569 551 l 0
 219 113 l 0
 540 113 l 0
 534 0 l 0
 1 0 l 0
EndSplineSet
EndChar

StartChar: bracketleft
Encoding: 91 91 90
Width: 0
VWidth: 0
Flags: HMW
LayerCount: 2
Fore
SplineSet
469 615 m 0
 495 589 495 545 469 519 c 0
 443 493 400 493 374 519 c 0
 348 545 348 589 374 615 c 0
 400 641 443 641 469 615 c 0
249 615 m 0
 275 589 275 545 249 519 c 0
 223 493 180 493 154 519 c 0
 128 545 128 589 154 615 c 0
 180 641 223 641 249 615 c 0
EndSplineSet
EndChar

StartChar: backslash
Encoding: 92 92 91
Width: 0
VWidth: 0
Flags: HMW
LayerCount: 2
Fore
SplineSet
359 617 m 0
 336 639 298 639 275 617 c 0
 253 594 253 556 275 533 c 0
 298 511 336 511 359 533 c 0
 381 556 381 594 359 617 c 0
389 647 m 0
 428 607 428 543 389 503 c 0
 349 464 285 464 245 503 c 0
 206 543 206 607 245 647 c 0
 285 686 349 686 389 647 c 0
EndSplineSet
EndChar

StartChar: bracketright
Encoding: 93 93 92
Width: 0
VWidth: 0
Flags: HMW
LayerCount: 2
Fore
SplineSet
338 620 m 0
 365 593 365 547 338 520 c 0
 311 493 266 493 239 520 c 0
 212 547 212 593 239 620 c 0
 266 647 311 647 338 620 c 0
EndSplineSet
EndChar

StartChar: asciicircum
Encoding: 94 94 93
Width: 0
VWidth: 0
Flags: HMW
LayerCount: 2
Fore
SplineSet
108 507 m 0
 225 635 l 0
 381 635 l 0
 479 507 l 0
 366 507 l 0
 298 562 l 0
 221 507 l 0
 108 507 l 0
EndSplineSet
EndChar

StartChar: underscore
Encoding: 95 95 94
Width: 500
VWidth: 0
Flags: HMW
LayerCount: 2
Fore
SplineSet
2 -171 m 0
 2 -72 l 0
 502 -72 l 0
 502 -171 l 0
 2 -171 l 0
EndSplineSet
EndChar

StartChar: grave
Encoding: 96 96 95
Width: 0
VWidth: 0
Flags: HMW
LayerCount: 2
Fore
SplineSet
368 507 m 0
 272 507 l 0
 118 635 l 0
 299 635 l 0
 368 507 l 0
EndSplineSet
EndChar

StartChar: a
Encoding: 97 97 96
Width: 567
VWidth: 0
Flags: HMW
LayerCount: 2
Fore
SplineSet
223 127 m 0
 260 90 353 120 358 208 c 0
 364 325 l 0
 335 334 283 338 245 300 c 0
 203 258 187 163 223 127 c 0
115 31 m 0
 49 97 43 276 143 376 c 0
 226 459 380 469 506 428 c 0
 491 157 l 0
 487 94 511 73 575 99 c 0
 570 14 l 0
 537 -5 512 -11 481 -11 c 0
 423 -11 382 13 372 58 c 0
 313 -32 179 -33 115 31 c 0
EndSplineSet
EndChar

StartChar: b
Encoding: 98 98 97
Width: 567
VWidth: 0
Flags: HMW
LayerCount: 2
Fore
SplineSet
366 145 m 0
 400 179 415 264 380 299 c 0
 350 329 296 327 260 291 c 0
 233 264 232 202 227 121 c 0
 269 100 322 101 366 145 c 0
488 405 m 0
 568 325 549 150 459 60 c 0
 359 -40 221 -27 86 31 c 0
 122 686 l 0
 258 686 l 0
 243 403 l 0
 299 459 420 473 488 405 c 0
EndSplineSet
EndChar

StartChar: c
Encoding: 99 99 98
Width: 449
VWidth: 0
Flags: HMW
LayerCount: 2
Fore
SplineSet
231 130 m 0
 273 88 353 96 414 135 c 0
 418 20 l 0
 337 -24 196 -35 118 43 c 0
 46 115 43 298 133 388 c 0
 221 476 381 459 434 417 c 0
 406 303 l 0
 359 333 277 340 235 298 c 0
 193 256 194 167 231 130 c 0
EndSplineSet
EndChar

StartChar: d
Encoding: 100 100 99
Width: 577
VWidth: 0
Flags: HMW
LayerCount: 2
Fore
SplineSet
118 39 m 0
 49 108 42 279 146 383 c 0
 219 456 316 465 383 436 c 0
 397 686 l 0
 533 686 l 0
 504 155 l 0
 500 82 532 60 586 96 c 0
 581 19 l 0
 555 0 523 -11 485 -11 c 0
 435 -11 400 6 387 52 c 0
 323 -27 196 -39 118 39 c 0
248 303 m 0
 203 258 193 164 228 129 c 0
 257 100 309 107 341 139 c 0
 368 166 369 193 377 322 c 0
 345 340 283 338 248 303 c 0
EndSplineSet
EndChar

StartChar: e
Encoding: 101 101 100
Width: 491
VWidth: 0
Flags: HMW
LayerCount: 2
Fore
SplineSet
343 312 m 0
 343 364 246 370 216 260 c 0
 278 252 343 269 343 312 c 0
120 41 m 0
 42 119 50 288 140 378 c 0
 237 475 387 466 445 408 c 0
 487 366 491 287 439 235 c 0
 377 173 275 165 203 169 c 0
 213 62 320 71 431 133 c 0
 428 27 l 0
 352 -19 203 -42 120 41 c 0
EndSplineSet
EndChar

StartChar: f
Encoding: 102 102 101
Width: 334
VWidth: 0
Flags: HMW
LayerCount: 2
Fore
SplineSet
100 -7 m 0
 120 345 l 0
 37 345 l 0
 43 440 l 0
 125 440 l 0
 130 511 126 588 181 643 c 0
 257 719 396 695 446 677 c 0
 427 575 l 0
 394 594 325 601 294 570 c 0
 265 541 264 493 261 440 c 0
 363 440 l 0
 357 345 l 0
 256 345 l 0
 236 -6 l 0
 222 -263 -12 -252 -98 -222 c 0
 -90 -128 l 0
 -4 -148 93 -135 100 -7 c 0
EndSplineSet
EndChar

StartChar: g
Encoding: 103 103 102
Width: 564
VWidth: 0
Flags: HMW
LayerCount: 2
Fore
SplineSet
492 -19 m 0
 479 -249 238 -250 121 -209 c 0
 129 -101 l 0
 224 -140 350 -130 355 -38 c 0
 358 15 l 0
 314 -12 197 -43 117 37 c 0
 50 104 42 271 133 362 c 0
 248 477 428 456 517 431 c 0
 492 -19 l 0
223 134 m 0
 261 96 364 117 369 213 c 0
 375 321 l 0
 316 325 288 324 242 290 c 0
 197 245 194 163 223 134 c 0
EndSplineSet
EndChar

StartChar: h
Encoding: 104 104 103
Width: 574
VWidth: 0
Flags: HMW
LayerCount: 2
Fore
SplineSet
234 404 m 0
 271 434 314 451 364 451 c 0
 438 451 497 401 491 289 c 0
 484 156 l 0
 478 49 546 75 582 97 c 0
 577 12 l 0
 550 -4 517 -11 477 -11 c 0
 378 -11 341 27 347 139 c 0
 354 268 l 0
 357 320 336 341 303 341 c 0
 247 341 229 290 226 234 c 0
 212 0 l 0
 76 0 l 0
 114 686 l 0
 250 686 l 0
 234 404 l 0
EndSplineSet
EndChar

StartChar: i
Encoding: 105 105 104
Width: 305
VWidth: 0
Flags: HMW
LayerCount: 2
Fore
SplineSet
216 156 m 0
 210 49 271 77 307 99 c 0
 302 14 l 0
 275 -2 249 -11 209 -11 c 0
 110 -11 73 27 79 139 c 0
 95 440 l 0
 231 440 l 0
 216 156 l 0
233 627 m 0
 264 598 264 549 233 520 c 0
 202 490 151 490 120 520 c 0
 89 549 89 598 120 627 c 0
 151 657 202 657 233 627 c 0
EndSplineSet
EndChar

StartChar: j
Encoding: 106 106 105
Width: 289
VWidth: 0
Flags: HMW
LayerCount: 2
Fore
SplineSet
243 627 m 0
 274 598 274 549 243 520 c 0
 212 490 161 490 130 520 c 0
 99 549 99 598 130 627 c 0
 161 657 212 657 243 627 c 0
219 -34 m 0
 210 -209 73 -264 -102 -223 c 0
 -95 -127 l 0
 -17 -141 77 -148 83 -27 c 0
 108 440 l 0
 244 440 l 0
 219 -34 l 0
EndSplineSet
EndChar

StartChar: k
Encoding: 107 107 106
Width: 500
VWidth: 0
Flags: HMW
LayerCount: 2
Fore
SplineSet
194 394 m 0
 278 473 479 480 479 355 c 0
 479 293 421 232 338 216 c 0
 383 138 l 0
 428 60 496 91 528 105 c 0
 523 17 l 0
 483 -6 326 -49 266 60 c 0
 200 184 l 0
 182 181 l 0
 172 0 l 0
 36 0 l 0
 74 686 l 0
 210 686 l 0
 194 394 l 0
199 266 m 0
 271 266 325 277 325 316 c 0
 325 357 229 364 199 266 c 0
EndSplineSet
EndChar

StartChar: l
Encoding: 108 108 107
Width: 311
VWidth: 0
Flags: HMW
LayerCount: 2
Fore
SplineSet
222 156 m 0
 216 49 283 75 319 97 c 0
 314 12 l 0
 287 -4 255 -11 215 -11 c 0
 116 -11 79 27 85 139 c 0
 115 686 l 0
 251 686 l 0
 222 156 l 0
EndSplineSet
EndChar

StartChar: m
Encoding: 109 109 108
Width: 862
VWidth: 0
Flags: HMW
LayerCount: 2
Fore
SplineSet
488 389 m 0
 533 429 580 451 648 451 c 0
 722 451 781 401 775 289 c 0
 768 156 l 0
 762 49 829 75 865 97 c 0
 860 12 l 0
 833 -4 801 -11 761 -11 c 0
 662 -11 625 27 631 139 c 0
 638 268 l 0
 641 320 616 341 583 341 c 0
 527 341 504 290 501 234 c 0
 488 0 l 0
 352 0 l 0
 367 268 l 0
 370 320 344 341 311 341 c 0
 255 341 233 290 230 234 c 0
 217 0 l 0
 81 0 l 0
 98 306 l 0
 101 360 100 400 86 440 c 0
 218 440 l 0
 226 420 223 418 226 397 c 0
 315 473 441 467 488 389 c 0
EndSplineSet
EndChar

StartChar: n
Encoding: 110 110 109
Width: 578
VWidth: 0
Flags: HMW
LayerCount: 2
Fore
SplineSet
491 289 m 0
 484 156 l 0
 478 49 545 75 581 97 c 0
 576 12 l 0
 549 -4 517 -11 477 -11 c 0
 378 -11 341 27 347 139 c 0
 354 268 l 0
 357 320 336 341 303 341 c 0
 247 341 229 290 226 234 c 0
 213 0 l 0
 77 0 l 0
 94 306 l 0
 97 360 96 400 82 440 c 0
 214 440 l 0
 222 420 223 418 226 397 c 0
 269 435 314 451 364 451 c 0
 438 451 497 401 491 289 c 0
EndSplineSet
EndChar

StartChar: o
Encoding: 111 111 110
Width: 565
VWidth: 0
Flags: HMW
LayerCount: 2
Fore
SplineSet
241 307 m 0
 194 260 197 166 233 130 c 0
 265 98 329 103 359 133 c 0
 398 172 404 271 365 310 c 0
 335 340 271 337 241 307 c 0
461 55 m 0
 372 -36 200 -33 121 44 c 0
 43 122 44 296 135 385 c 0
 223 473 400 470 475 395 c 0
 555 315 547 141 461 55 c 0
EndSplineSet
EndChar

StartChar: p
Encoding: 112 112 111
Width: 573
VWidth: 0
Flags: HMW
LayerCount: 2
Fore
SplineSet
369 304 m 0
 344 329 291 328 263 300 c 0
 227 264 227 222 223 130 c 0
 260 94 323 100 359 136 c 0
 394 171 408 265 369 304 c 0
478 404 m 0
 567 315 540 128 457 45 c 0
 381 -31 273 -27 217 21 c 0
 203 -227 l 0
 67 -227 l 0
 98 331 l 0
 100 373 99 414 90 440 c 0
 220 440 l 0
 225 425 227 418 228 393 c 0
 299 467 411 471 478 404 c 0
EndSplineSet
EndChar

StartChar: q
Encoding: 113 113 112
Width: 559
VWidth: 0
Flags: HMW
LayerCount: 2
Fore
SplineSet
239 294 m 0
 199 254 190 172 224 138 c 0
 254 108 299 107 335 142 c 0
 362 169 365 246 370 325 c 0
 326 333 273 328 239 294 c 0
110 33 m 0
 34 109 46 280 146 380 c 0
 227 461 388 465 512 432 c 0
 476 -227 l 0
 340 -227 l 0
 354 39 l 0
 288 -29 177 -33 110 33 c 0
EndSplineSet
EndChar

StartChar: r
Encoding: 114 114 113
Width: 387
VWidth: 0
Flags: HMW
LayerCount: 2
Fore
SplineSet
223 0 m 0
 87 0 l 0
 105 324 l 0
 107 364 109 396 97 440 c 0
 226 440 l 0
 235 417 235 401 232 374 c 0
 295 469 364 457 401 438 c 0
 393 331 l 0
 289 356 239 290 233 181 c 0
 223 0 l 0
EndSplineSet
EndChar

StartChar: s
Encoding: 115 115 114
Width: 459
VWidth: 0
Flags: HMW
LayerCount: 2
Fore
SplineSet
67 312 m 0
 67 488 341 461 422 421 c 0
 406 320 l 0
 329 356 216 370 216 322 c 0
 216 265 419 265 419 129 c 0
 419 -33 186 -39 47 20 c 0
 55 130 l 0
 166 73 271 60 271 112 c 0
 271 168 67 165 67 312 c 0
EndSplineSet
EndChar

StartChar: t
Encoding: 116 116 115
Width: 381
VWidth: 0
Flags: HMW
LayerCount: 2
Fore
SplineSet
103 153 m 0
 114 345 l 0
 50 345 l 0
 55 440 l 0
 119 440 l 0
 125 551 l 0
 261 551 l 0
 255 440 l 0
 393 440 l 0
 388 345 l 0
 250 345 l 0
 240 171 l 0
 234 62 307 77 380 116 c 0
 374 16 l 0
 341 -4 299 -14 252 -14 c 0
 133 -14 96 32 103 153 c 0
EndSplineSet
EndChar

StartChar: u
Encoding: 117 117 116
Width: 574
VWidth: 0
Flags: HMW
LayerCount: 2
Fore
SplineSet
359 193 m 0
 372 440 l 0
 508 440 l 0
 492 147 l 0
 489 94 504 70 583 100 c 0
 577 11 l 0
 556 -2 523 -11 489 -11 c 0
 433 -11 403 8 389 48 c 0
 355 1 286 -14 240 -14 c 0
 98 -14 84 79 89 160 c 0
 97 307 l 0
 101 373 102 401 97 440 c 0
 229 440 l 0
 238 414 237 379 234 323 c 0
 226 180 l 0
 223 137 241 111 280 111 c 0
 312 111 355 131 359 193 c 0
EndSplineSet
EndChar

StartChar: v
Encoding: 118 118 117
Width: 521
VWidth: 0
Flags: HMW
LayerCount: 2
Fore
SplineSet
258 -14 m 0
 203 -14 194 6 182 42 c 0
 46 440 l 0
 184 440 l 0
 266 158 l 0
 390 440 l 0
 528 440 l 0
 338 54 l 0
 311 -1 288 -14 258 -14 c 0
EndSplineSet
EndChar

StartChar: w
Encoding: 119 119 118
Width: 804
VWidth: 0
Flags: HMW
LayerCount: 2
Fore
SplineSet
573 177 m 0
 663 440 l 0
 805 440 l 0
 635 39 l 0
 616 -5 601 -14 560 -14 c 0
 521 -14 501 3 491 43 c 0
 422 309 l 0
 317 37 l 0
 302 -2 282 -14 242 -14 c 0
 202 -14 186 -3 173 41 c 0
 57 440 l 0
 191 440 l 0
 257 181 l 0
 347 440 l 0
 510 440 l 0
 573 177 l 0
EndSplineSet
EndChar

StartChar: x
Encoding: 120 120 119
Width: 502
VWidth: 0
Flags: HMW
LayerCount: 2
Fore
SplineSet
21 0 m 0
 187 234 l 0
 74 440 l 0
 222 440 l 0
 280 324 l 0
 350 440 l 0
 505 440 l 0
 357 227 l 0
 481 0 l 0
 333 0 l 0
 263 140 l 0
 173 0 l 0
 21 0 l 0
EndSplineSet
EndChar

StartChar: y
Encoding: 121 121 120
Width: 559
VWidth: 0
Flags: HMW
LayerCount: 2
Fore
SplineSet
479 -12 m 0
 465 -263 200 -236 114 -214 c 0
 119 -116 l 0
 186 -135 334 -160 342 -29 c 0
 346 38 l 0
 315 0 267 -14 221 -14 c 0
 133 -14 83 17 91 161 c 0
 99 305 l 0
 102 370 105 399 98 440 c 0
 230 440 l 0
 238 389 238 359 234 289 c 0
 228 177 l 0
 225 126 238 107 269 107 c 0
 314 107 352 149 355 204 c 0
 368 440 l 0
 504 440 l 0
 479 -12 l 0
EndSplineSet
EndChar

StartChar: z
Encoding: 122 122 121
Width: 440
VWidth: 0
Flags: HMW
LayerCount: 2
Fore
SplineSet
418 100 m 0
 413 5 l 0
 356 -13 153 7 27 0 c 0
 32 100 l 0
 256 345 l 0
 68 345 l 0
 72 440 l 0
 435 440 l 0
 431 350 l 0
 186 95 l 0
 251 108 332 86 418 100 c 0
EndSplineSet
EndChar

StartChar: braceleft
Encoding: 123 123 122
Width: 0
VWidth: 0
Flags: HMW
LayerCount: 2
Fore
SplineSet
174 644 m 0
 246 644 l 0
 259 573 370 568 398 644 c 0
 467 644 l 0
 436 440 178 452 174 644 c 0
EndSplineSet
EndChar

StartChar: bar
Encoding: 124 124 123
Width: 0
VWidth: 0
Flags: HMW
LayerCount: 2
Fore
SplineSet
174 499 m 0
 178 590 l 0
 475 590 l 0
 471 499 l 0
 174 499 l 0
EndSplineSet
EndChar

StartChar: braceright
Encoding: 125 125 124
Width: 0
VWidth: 0
Flags: HMW
LayerCount: 2
Fore
SplineSet
385 507 m 0
 455 635 l 0
 589 635 l 0
 472 507 l 0
 385 507 l 0
215 507 m 0
 285 635 l 0
 419 635 l 0
 303 507 l 0
 215 507 l 0
EndSplineSet
EndChar

StartChar: asciitilde
Encoding: 126 126 125
Width: 0
VWidth: 0
Flags: HMW
LayerCount: 2
Fore
SplineSet
206 567 m 0
 180 567 164 547 161 510 c 0
 100 510 l 0
 102 615 133 677 205 677 c 0
 265 677 306 621 355 621 c 0
 381 621 396 640 401 683 c 0
 462 683 l 0
 460 572 420 513 347 513 c 0
 283 513 254 567 206 567 c 0
EndSplineSet
EndChar

StartChar: uni007F
Encoding: 127 127 126
Width: 0
VWidth: 0
Flags: HMW
LayerCount: 2
Fore
SplineSet
500 635 m 0
 383 507 l 0
 227 507 l 0
 129 635 l 0
 242 635 l 0
 310 580 l 0
 387 635 l 0
 500 635 l 0
EndSplineSet
EndChar

StartChar: uni0080
Encoding: 128 128 127
Width: 299
VWidth: 0
Flags: HMW
LayerCount: 2
Fore
SplineSet
95 492 m 0
 59 546 l 0
 88 566 121 591 149 621 c 0
 225 621 l 0
 205 248 l 0
 126 248 l 0
 141 534 l 0
 126 518 111 506 95 492 c 0
EndSplineSet
EndChar

StartChar: uni0081
Encoding: 129 129 128
Width: 299
VWidth: 0
Flags: HMW
LayerCount: 2
Fore
SplineSet
22 296 m 0
 159 428 202 480 202 518 c 0
 202 564 132 594 84 502 c 0
 34 538 l 0
 83 675 291 657 291 528 c 0
 291 470 248 407 136 317 c 0
 279 317 l 0
 275 248 l 0
 19 248 l 0
 22 296 l 0
EndSplineSet
EndChar

StartChar: uni0082
Encoding: 130 130 129
Width: 299
VWidth: 0
Flags: HMW
LayerCount: 2
Fore
SplineSet
223 256 m 0
 180 234 62 221 6 301 c 0
 46 351 l 0
 90 295 151 293 178 321 c 0
 196 339 198 367 180 385 c 0
 164 402 136 409 85 409 c 0
 87 475 l 0
 101 474 161 470 185 494 c 0
 202 512 200 538 185 554 c 0
 165 574 117 576 68 525 c 0
 40 582 l 0
 95 645 212 648 257 602 c 0
 293 565 300 474 210 442 c 0
 210 441 l 0
 293 431 307 299 223 256 c 0
EndSplineSet
EndChar

StartChar: uni0083
Encoding: 131 131 130
Width: 299
VWidth: 0
Flags: HMW
LayerCount: 2
Fore
SplineSet
22 340 m 0
 25 402 l 0
 162 621 l 0
 247 621 l 0
 112 402 l 0
 179 402 l 0
 183 482 l 0
 262 482 l 0
 258 402 l 0
 300 402 l 0
 297 340 l 0
 255 340 l 0
 249 248 l 0
 170 248 l 0
 176 340 l 0
 22 340 l 0
EndSplineSet
EndChar

StartChar: uni0084
Encoding: 132 132 131
Width: 109
VWidth: 0
Flags: HMW
LayerCount: 2
Fore
SplineSet
-184 0 m 0
 223 621 l 0
 326 621 l 0
 -81 0 l 0
 -184 0 l 0
EndSplineSet
EndChar

StartChar: uni0088
Encoding: 136 136 135
Width: 805
VWidth: 0
Flags: HMW
LayerCount: 2
Fore
SplineSet
656 207 m 0
 640 223 610 226 592 208 c 0
 570 186 562 121 586 97 c 0
 600 83 629 81 647 99 c 0
 672 124 677 186 656 207 c 0
255 520 m 0
 239 536 209 539 191 521 c 0
 169 499 161 435 185 411 c 0
 199 397 228 395 246 413 c 0
 271 438 276 499 255 520 c 0
159 0 m 0
 571 621 l 0
 671 621 l 0
 259 0 l 0
 159 0 l 0
721 285 m 0
 782 224 772 85 713 26 c 0
 658 -29 567 -26 518 23 c 0
 459 82 465 220 526 281 c 0
 580 335 676 330 721 285 c 0
320 598 m 0
 381 537 371 399 312 340 c 0
 257 285 166 288 117 337 c 0
 58 396 64 533 125 594 c 0
 179 648 275 643 320 598 c 0
EndSplineSet
EndChar

StartChar: uni0089
Encoding: 137 137 136
Width: 346
VWidth: 0
Flags: HMW
LayerCount: 2
Fore
SplineSet
243 0 m 0
 107 0 l 0
 126 345 l 0
 43 345 l 0
 49 440 l 0
 131 440 l 0
 136 511 132 588 187 643 c 0
 263 719 402 695 452 677 c 0
 433 575 l 0
 400 594 331 601 300 570 c 0
 271 541 270 493 267 440 c 0
 369 440 l 0
 363 345 l 0
 262 345 l 0
 243 0 l 0
EndSplineSet
EndChar

StartChar: uni008A
Encoding: 138 138 137
Width: 373
VWidth: 0
Flags: HMW
LayerCount: 2
Fore
SplineSet
286 539 m 0
 249 576 186 576 149 539 c 0
 112 502 112 439 149 402 c 0
 186 365 249 365 286 402 c 0
 323 439 323 502 286 539 c 0
334 587 m 0
 397 523 397 418 334 354 c 0
 270 291 165 291 101 354 c 0
 38 418 38 523 101 587 c 0
 165 650 270 650 334 587 c 0
EndSplineSet
EndChar

StartChar: uni008B
Encoding: 139 139 138
Width: 274
VWidth: 0
Flags: HMW
LayerCount: 2
Fore
SplineSet
212 379 m 0
 242 350 242 300 212 271 c 0
 183 241 134 241 105 271 c 0
 75 300 75 350 105 379 c 0
 134 409 183 409 212 379 c 0
EndSplineSet
EndChar

StartChar: uni008C
Encoding: 140 140 139
Width: 272
VWidth: 0
Flags: HMW
LayerCount: 2
Fore
SplineSet
232 409 m 0
 274 367 274 300 232 258 c 0
 190 216 126 216 84 258 c 0
 42 300 42 367 84 409 c 0
 126 451 190 451 232 409 c 0
EndSplineSet
EndChar

StartChar: uni008D
Encoding: 141 141 140
Width: 307
VWidth: 0
Flags: HMW
LayerCount: 2
Fore
SplineSet
148 53 m 0
 55 226 l 0
 163 394 l 0
 286 394 l 0
 183 224 l 0
 268 53 l 0
 148 53 l 0
EndSplineSet
EndChar

StartChar: uni008E
Encoding: 142 142 141
Width: 307
VWidth: 0
Flags: HMW
LayerCount: 2
Fore
SplineSet
191 394 m 0
 284 220 l 0
 176 52 l 0
 55 52 l 0
 158 222 l 0
 72 394 l 0
 191 394 l 0
EndSplineSet
EndChar

StartChar: uni0091
Encoding: 145 145 144
Width: 500
VWidth: 0
Flags: HMW
LayerCount: 2
Fore
SplineSet
235 276 m 0
 249 539 l 0
 101 539 91 363 147 307 c 0
 172 282 205 276 235 276 c 0
77 255 m 0
 -11 343 12 621 275 621 c 0
 561 621 l 0
 556 539 l 0
 500 539 l 0
 456 -264 l 0
 376 -264 l 0
 420 539 l 0
 329 539 l 0
 285 -264 l 0
 205 -264 l 0
 230 198 l 0
 176 200 118 214 77 255 c 0
EndSplineSet
EndChar

StartChar: uni0092
Encoding: 146 146 145
Width: 500
VWidth: 0
Flags: HMW
LayerCount: 2
Fore
SplineSet
423 587 m 0
 484 526 468 444 426 0 c 0
 299 0 l 0
 328 279 l 0
 252 215 157 234 105 286 c 0
 36 355 40 490 124 574 c 0
 199 651 359 651 423 587 c 0
210 377 m 0
 239 348 321 352 331 428 c 0
 336 465 339 477 319 497 c 0
 299 517 245 518 216 489 c 0
 188 461 182 405 210 377 c 0
EndSplineSet
EndChar

StartChar: uni0093
Encoding: 147 147 146
Width: 500
VWidth: 0
Flags: HMW
LayerCount: 2
Fore
SplineSet
21 199 m 0
 21 319 l 0
 209 319 l 0
 209 519 l 0
 329 519 l 0
 329 319 l 0
 517 319 l 0
 517 199 l 0
 329 199 l 0
 329 -1 l 0
 209 -1 l 0
 209 199 l 0
 21 199 l 0
EndSplineSet
EndChar

StartChar: uni0094
Encoding: 148 148 147
Width: 500
VWidth: 0
Flags: HMW
LayerCount: 2
Fore
SplineSet
106 8 m 0
 18 96 l 0
 181 259 l 0
 18 422 l 0
 106 510 l 0
 269 347 l 0
 432 510 l 0
 520 422 l 0
 357 259 l 0
 520 96 l 0
 432 8 l 0
 269 171 l 0
 106 8 l 0
EndSplineSet
EndChar

StartChar: uni0095
Encoding: 149 149 148
Width: 500
VWidth: 0
Flags: HMW
LayerCount: 2
Fore
SplineSet
314 138 m 0
 340 111 340 68 314 41 c 0
 287 15 244 15 217 41 c 0
 191 68 191 111 217 138 c 0
 244 164 287 164 314 138 c 0
314 480 m 0
 340 453 340 410 314 383 c 0
 287 357 244 357 217 383 c 0
 191 410 191 453 217 480 c 0
 244 506 287 506 314 480 c 0
18 199 m 0
 18 319 l 0
 514 319 l 0
 514 199 l 0
 18 199 l 0
EndSplineSet
EndChar

StartChar: uni0096
Encoding: 150 150 149
Width: 500
VWidth: 0
Flags: HMW
LayerCount: 2
Fore
SplineSet
20 230 m 0
 20 350 l 0
 209 350 l 0
 209 530 l 0
 329 530 l 0
 329 350 l 0
 518 350 l 0
 518 230 l 0
 329 230 l 0
 329 51 l 0
 209 51 l 0
 209 230 l 0
 20 230 l 0
20 -129 m 0
 20 -9 l 0
 518 -9 l 0
 518 -129 l 0
 20 -129 l 0
EndSplineSet
EndChar

StartChar: uni0097
Encoding: 151 151 150
Width: 500
VWidth: 0
Flags: HMW
LayerCount: 2
Fore
SplineSet
11 178 m 0
 15 277 l 0
 517 277 l 0
 513 178 l 0
 11 178 l 0
EndSplineSet
EndChar

StartChar: uni0098
Encoding: 152 152 151
Width: 1000
VWidth: 0
Flags: HMW
LayerCount: 2
Fore
SplineSet
12 178 m 0
 16 277 l 0
 1016 277 l 0
 1012 178 l 0
 12 178 l 0
EndSplineSet
EndChar

StartChar: uni0099
Encoding: 153 153 152
Width: 500
VWidth: 0
Flags: HMW
LayerCount: 2
Fore
SplineSet
517 199 m 0
 21 199 l 0
 21 319 l 0
 517 319 l 0
 517 199 l 0
EndSplineSet
EndChar

StartChar: uni009A
Encoding: 154 154 153
Width: 333
VWidth: 0
Flags: HMW
LayerCount: 2
Fore
SplineSet
120 -77 m 0
 162 687 l 0
 382 687 l 0
 377 590 l 0
 277 590 l 0
 246 20 l 0
 346 20 l 0
 340 -77 l 0
 120 -77 l 0
EndSplineSet
EndChar

StartChar: uni009B
Encoding: 155 155 154
Width: 333
VWidth: 0
Flags: HMW
LayerCount: 2
Fore
SplineSet
252 687 m 0
 210 -77 l 0
 -10 -77 l 0
 -5 20 l 0
 95 20 l 0
 126 590 l 0
 26 590 l 0
 32 687 l 0
 252 687 l 0
EndSplineSet
EndChar

StartChar: uni009C
Encoding: 156 156 155
Width: 499
VWidth: 0
Flags: HMW
LayerCount: 2
Fore
SplineSet
501 257 m 0
 496 153 l 0
 422 154 l 0
 414 0 l 0
 289 0 l 0
 297 153 l 0
 36 153 l 0
 66 621 l 0
 206 621 l 0
 184 257 l 0
 302 257 l 0
 311 390 l 0
 434 390 l 0
 427 257 l 0
 501 257 l 0
EndSplineSet
EndChar

StartChar: uni009D
Encoding: 157 157 156
Width: 590
VWidth: 0
Flags: HMW
LayerCount: 2
Fore
SplineSet
573 17 m 0
 533 -6 366 -49 306 60 c 0
 224 210 l 0
 212 0 l 0
 76 0 l 0
 114 686 l 0
 250 686 l 0
 229 298 l 0
 396 440 l 0
 592 440 l 0
 353 258 l 0
 423 138 l 0
 468 60 546 91 578 105 c 0
 573 17 l 0
EndSplineSet
EndChar

StartChar: uni009E
Encoding: 158 158 157
Width: 285
VWidth: 0
Flags: HMW
LayerCount: 2
Fore
SplineSet
268 -79 m 0
 227 -79 l 0
 112 -79 67 -46 71 34 c 0
 73 67 90 96 95 180 c 0
 98 244 79 277 32 287 c 0
 35 341 l 0
 79 348 102 382 105 440 c 0
 107 466 95 532 97 566 c 0
 101 654 153 689 274 689 c 0
 308 689 l 0
 305 627 l 0
 294 627 277 627 277 627 c 0
 244 627 227 600 225 573 c 0
 224 556 233 493 231 457 c 0
 227 383 179 325 103 314 c 0
 184 297 223 236 218 149 c 0
 215 98 201 74 199 37 c 0
 197 3 208 -17 242 -17 c 0
 271 -17 l 0
 268 -79 l 0
EndSplineSet
EndChar

StartChar: uni009F
Encoding: 159 159 158
Width: 285
VWidth: 0
Flags: HMW
LayerCount: 2
Fore
SplineSet
284 286 m 0
 239 278 213 242 210 181 c 0
 206 115 221 71 219 36 c 0
 215 -47 168 -80 52 -80 c 0
 8 -80 l 0
 11 -18 l 0
 36 -18 l 0
 65 -18 89 1 91 34 c 0
 93 67 81 86 84 148 c 0
 88 235 134 295 217 312 c 0
 138 324 99 381 103 460 c 0
 105 493 121 550 122 576 c 0
 124 603 111 626 70 626 c 0
 70 626 55 626 47 626 c 0
 50 688 l 0
 84 689 l 0
 204 688 252 651 248 564 c 0
 247 555 226 441 226 441 c 0
 223 382 243 347 287 339 c 0
 284 286 l 0
EndSplineSet
EndChar

StartChar: uni00A0
Encoding: 160 160 159
Width: 805
VWidth: 0
Flags: HMW
LayerCount: 2
Fore
SplineSet
278 167 m 0
 219 226 229 359 304 434 c 0
 357 487 443 502 492 468 c 0
 494 488 l 0
 581 488 l 0
 547 256 l 0
 534 165 629 170 670 211 c 0
 731 272 735 425 634 525 c 0
 531 628 322 632 209 519 c 0
 99 411 103 219 214 108 c 0
 316 6 495 -9 618 71 c 0
 640 32 l 0
 498 -62 265 -55 133 79 c 0
 2 210 16 426 139 549 c 0
 282 692 555 687 685 557 c 0
 803 439 793 265 713 185 c 0
 652 124 520 104 477 202 c 0
 428 123 331 114 278 167 c 0
358 208 m 0
 390 176 454 198 466 289 c 0
 485 431 l 0
 459 449 416 455 380 419 c 0
 330 369 315 251 358 208 c 0
EndSplineSet
EndChar

StartChar: exclamdown
Encoding: 161 161 160
Width: 702
VWidth: 0
Flags: HMW
LayerCount: 2
Fore
SplineSet
290 485 m 0
 290 464 304 440 336 404 c 0
 411 434 423 492 391 524 c 0
 363 552 290 543 290 485 c 0
288 278 m 0
 174 240 164 161 201 124 c 0
 242 83 325 90 404 146 c 0
 379 173 308 255 288 278 c 0
92 44 m 0
 15 121 23 309 218 359 c 0
 171 415 157 446 157 486 c 0
 157 647 409 671 497 583 c 0
 556 524 565 391 406 332 c 0
 434 295 471 253 504 221 c 0
 551 261 572 283 606 330 c 0
 693 260 l 0
 652 203 630 180 572 134 c 0
 626 77 673 28 711 0 c 0
 539 0 l 0
 525 11 493 43 473 65 c 0
 329 -45 164 -28 92 44 c 0
EndSplineSet
EndChar

StartChar: cent
Encoding: 162 162 161
Width: 500
VWidth: 0
Flags: HMW
LayerCount: 2
Fore
SplineSet
23 281 m 0
 209 621 l 0
 329 621 l 0
 516 281 l 0
 389 281 l 0
 267 522 l 0
 142 281 l 0
 23 281 l 0
EndSplineSet
EndChar

StartChar: sterling
Encoding: 163 163 162
Width: 186
VWidth: 0
Flags: HMW
LayerCount: 2
Fore
SplineSet
81 0 m 0
 81 621 l 0
 145 621 l 0
 145 0 l 0
 81 0 l 0
EndSplineSet
EndChar

StartChar: currency
Encoding: 164 164 163
Width: 186
VWidth: 0
Flags: HMW
LayerCount: 2
Fore
SplineSet
81 382 m 0
 81 621 l 0
 145 621 l 0
 145 382 l 0
 81 382 l 0
145 0 m 0
 81 0 l 0
 81 239 l 0
 145 239 l 0
 145 0 l 0
EndSplineSet
EndChar

StartChar: yen
Encoding: 165 165 164
Width: 500
VWidth: 0
Flags: HMW
LayerCount: 2
Fore
SplineSet
20 316 m 0
 20 436 l 0
 517 436 l 0
 517 142 l 0
 397 142 l 0
 397 316 l 0
 20 316 l 0
EndSplineSet
EndChar

StartChar: brokenbar
Encoding: 166 166 165
Width: 721
VWidth: 0
Flags: HMW
LayerCount: 2
Fore
SplineSet
281 150 m 0
 201 230 211 378 274 441 c 0
 352 519 522 510 536 356 c 0
 478 356 l 0
 471 453 372 459 324 411 c 0
 267 354 279 231 321 189 c 0
 371 139 461 148 480 243 c 0
 536 243 l 0
 512 84 350 81 281 150 c 0
588 521 m 0
 474 638 288 638 174 521 c 0
 59 404 59 216 174 99 c 0
 288 -17 474 -17 588 99 c 0
 703 216 703 404 588 521 c 0
620 554 m 0
 754 420 754 203 620 69 c 0
 487 -64 271 -64 138 69 c 0
 5 203 5 420 138 554 c 0
 271 688 487 688 620 554 c 0
EndSplineSet
EndChar

StartChar: section
Encoding: 167 167 166
Width: 444
VWidth: 0
Flags: HMW
LayerCount: 2
Fore
SplineSet
588 521 m 0
 474 638 288 638 174 521 c 0
 59 404 59 216 174 99 c 0
 288 -17 474 -17 588 99 c 0
 703 216 703 404 588 521 c 0
620 554 m 0
 754 420 754 203 620 69 c 0
 487 -64 271 -64 138 69 c 0
 5 203 5 420 138 554 c 0
 271 688 487 688 620 554 c 0
404 438 m 0
 323 438 l 0
 323 339 l 0
 385 339 l 0
 471 339 474 438 404 438 c 0
442 312 m 0
 501 296 470 243 514 138 c 0
 456 138 l 0
 425 206 450 292 380 292 c 0
 323 292 l 0
 323 138 l 0
 272 138 l 0
 272 485 l 0
 410 485 l 0
 532 485 547 346 442 312 c 0
EndSplineSet
EndChar

StartChar: dieresis
Encoding: 168 168 167
Width: 421
VWidth: 0
Flags: HMW
LayerCount: 2
Fore
SplineSet
106 310 m 0
 106 571 l 0
 21 571 l 0
 21 621 l 0
 259 621 l 0
 259 571 l 0
 174 571 l 0
 174 310 l 0
 106 310 l 0
305 310 m 0
 305 621 l 0
 383 621 l 0
 475 467 l 0
 573 621 l 0
 645 621 l 0
 645 310 l 0
 577 310 l 0
 577 511 l 0
 505 388 l 0
 445 388 l 0
 373 511 l 0
 373 310 l 0
 305 310 l 0
EndSplineSet
EndChar

StartChar: copyright
Encoding: 169 169 168
Width: 451
VWidth: 0
Flags: HMW
LayerCount: 2
Fore
SplineSet
218 535 m 0
 185 502 187 436 212 411 c 0
 234 389 279 393 299 413 c 0
 326 440 330 510 303 537 c 0
 283 557 238 555 218 535 c 0
370 360 m 0
 308 297 189 299 134 352 c 0
 80 406 81 527 144 588 c 0
 205 649 328 647 380 595 c 0
 434 540 429 419 370 360 c 0
78 277 m 0
 400 277 l 0
 400 198 l 0
 78 198 l 0
 78 277 l 0
EndSplineSet
EndChar

StartChar: ordfeminine
Encoding: 170 170 169
Width: 480
VWidth: 0
Flags: HMW
LayerCount: 2
Fore
SplineSet
208 409 m 0
 234 384 292 405 296 465 c 0
 300 547 l 0
 280 553 250 556 223 530 c 0
 194 501 182 434 208 409 c 0
132 343 m 0
 85 389 81 513 151 582 c 0
 210 640 306 646 395 618 c 0
 385 432 l 0
 382 389 399 374 443 392 c 0
 439 333 l 0
 416 320 399 316 377 316 c 0
 337 316 313 331 306 362 c 0
 264 300 177 299 132 343 c 0
85 277 m 0
 424 277 l 0
 424 198 l 0
 85 198 l 0
 85 277 l 0
EndSplineSet
EndChar

StartChar: guillemotleft
Encoding: 171 171 170
Width: 499
VWidth: 0
Flags: HMW
LayerCount: 2
Fore
SplineSet
500 453 m 0
 487 363 l 0
 414 363 l 0
 397 257 l 0
 470 257 l 0
 456 166 l 0
 382 166 l 0
 351 -12 l 0
 257 -12 l 0
 288 166 l 0
 191 166 l 0
 160 -12 l 0
 67 -12 l 0
 98 166 l 0
 25 166 l 0
 41 257 l 0
 113 257 l 0
 131 363 l 0
 59 363 l 0
 75 453 l 0
 145 453 l 0
 173 613 l 0
 267 613 l 0
 239 453 l 0
 335 453 l 0
 363 613 l 0
 456 613 l 0
 429 453 l 0
 500 453 l 0
322 363 m 0
 224 363 l 0
 207 257 l 0
 303 257 l 0
 322 363 l 0
EndSplineSet
EndChar

StartChar: logicalnot
Encoding: 172 172 171
Width: 500
VWidth: 0
Flags: HMW
LayerCount: 2
Fore
SplineSet
323 298 m 0
 291 331 239 331 207 298 c 0
 176 265 176 213 207 180 c 0
 239 147 291 147 323 180 c 0
 354 213 354 265 323 298 c 0
389 365 m 0
 458 296 458 182 389 113 c 0
 320 43 208 43 139 113 c 0
 70 182 70 296 139 365 c 0
 208 435 320 435 389 365 c 0
53 73 m 0
 102 122 l 0
 151 73 l 0
 102 24 l 0
 53 73 l 0
379 405 m 0
 428 454 l 0
 477 405 l 0
 428 356 l 0
 379 405 l 0
379 73 m 0
 428 122 l 0
 477 73 l 0
 428 24 l 0
 379 73 l 0
53 405 m 0
 102 454 l 0
 151 405 l 0
 102 356 l 0
 53 405 l 0
EndSplineSet
EndChar

StartChar: uni00AD
Encoding: 173 173 172
Width: 500
VWidth: 0
Flags: HMW
LayerCount: 2
Fore
SplineSet
365 339 m 0
 470 339 l 0
 466 261 l 0
 327 261 l 0
 325 212 l 0
 463 212 l 0
 459 134 l 0
 321 134 l 0
 314 0 l 0
 177 0 l 0
 184 134 l 0
 60 134 l 0
 64 212 l 0
 188 212 l 0
 190 261 l 0
 67 261 l 0
 71 339 l 0
 167 339 l 0
 24 621 l 0
 167 621 l 0
 268 390 l 0
 398 621 l 0
 547 621 l 0
 365 339 l 0
EndSplineSet
EndChar

StartChar: registered
Encoding: 174 174 173
Width: 500
VWidth: 0
Flags: HMW
LayerCount: 2
Fore
SplineSet
201 -1 m 0
 50 41 43 286 145 388 c 0
 203 446 298 459 366 447 c 0
 392 517 l 0
 452 496 l 0
 428 432 l 0
 445 427 460 420 470 413 c 0
 444 303 l 0
 425 314 414 319 388 324 c 0
 306 102 l 0
 346 97 392 112 426 135 c 0
 430 20 l 0
 382 -7 310 -18 263 -13 c 0
 236 -86 l 0
 177 -66 l 0
 201 -1 l 0
324 334 m 0
 205 334 192 167 247 124 c 0
 324 334 l 0
EndSplineSet
EndChar

StartChar: macron
Encoding: 175 175 174
Width: 500
VWidth: 0
Flags: HMW
LayerCount: 2
Fore
SplineSet
284 97 m 0
 363 95 392 186 297 222 c 0
 284 97 l 0
260 520 m 0
 171 522 159 434 247 402 c 0
 260 520 l 0
214 101 m 0
 230 247 l 0
 101 298 48 357 48 445 c 0
 48 581 160 633 273 633 c 0
 279 700 l 0
 347 700 l 0
 340 631 l 0
 395 627 433 616 482 592 c 0
 476 474 l 0
 411 505 380 515 328 519 c 0
 313 377 l 0
 435 325 495 273 495 179 c 0
 495 62 406 -13 271 -14 c 0
 264 -84 l 0
 196 -84 l 0
 204 -11 l 0
 141 -1 71 22 27 48 c 0
 32 166 l 0
 80 139 157 106 214 101 c 0
EndSplineSet
EndChar

StartChar: guillemotright
Encoding: 187 187 186
Width: 499
VWidth: 0
Flags: HMW
LayerCount: 2
Fore
SplineSet
518 395 m 0
 187 271 l 0
 517 148 l 0
 517 31 l 0
 29 220 l 0
 29 321 l 0
 518 515 l 0
 518 395 l 0
EndSplineSet
EndChar

StartChar: onequarter
Encoding: 188 188 187
Width: 499
VWidth: 0
Flags: HMW
LayerCount: 2
Fore
SplineSet
519 220 m 0
 30 31 l 0
 30 148 l 0
 360 271 l 0
 29 395 l 0
 30 515 l 0
 519 321 l 0
 519 220 l 0
EndSplineSet
EndChar

StartChar: onehalf
Encoding: 189 189 188
Width: 590
VWidth: 0
Flags: HMW
LayerCount: 2
Fore
SplineSet
182 11 m 0
 173 -49 153 -132 133 -173 c 0
 13 -166 l 0
 41 -85 83 62 89 160 c 0
 97 307 l 0
 101 373 102 401 97 440 c 0
 229 440 l 0
 238 414 237 379 234 323 c 0
 226 180 l 0
 223 137 241 111 280 111 c 0
 312 111 355 131 359 193 c 0
 372 440 l 0
 508 440 l 0
 492 147 l 0
 489 94 504 70 583 100 c 0
 577 11 l 0
 556 -2 523 -11 489 -11 c 0
 433 -11 403 8 389 48 c 0
 351 -7 220 -40 182 11 c 0
EndSplineSet
EndChar

StartChar: threequarters
Encoding: 190 190 189
Width: 329
VWidth: 0
Flags: HMW
LayerCount: 2
Fore
SplineSet
25 -77 m 0
 223 687 l 0
 336 687 l 0
 138 -77 l 0
 25 -77 l 0
EndSplineSet
EndChar

StartChar: questiondown
Encoding: 191 191 190
Width: 329
VWidth: 0
Flags: HMW
LayerCount: 2
Fore
SplineSet
336 -77 m 0
 223 -77 l 0
 25 687 l 0
 138 687 l 0
 336 -77 l 0
EndSplineSet
EndChar

StartChar: Agrave
Encoding: 192 192 191
Width: 958
VWidth: 0
Flags: HMW
LayerCount: 2
Fore
SplineSet
335 261 m 0
 156 0 l 0
 -1 0 l 0
 444 621 l 0
 954 621 l 0
 948 508 l 0
 646 508 l 0
 667 374 l 0
 912 374 l 0
 906 261 l 0
 680 261 l 0
 710 113 l 0
 926 113 l 0
 920 0 l 0
 586 0 l 0
 543 261 l 0
 335 261 l 0
504 507 m 0
 412 374 l 0
 526 374 l 0
 504 507 l 0
EndSplineSet
EndChar

StartChar: Aacute
Encoding: 193 193 192
Width: 976
VWidth: 0
Flags: HMW
LayerCount: 2
Fore
SplineSet
448 143 m 0
 520 215 531 411 467 475 c 0
 423 519 337 522 283 468 c 0
 211 396 202 197 266 133 c 0
 306 93 392 87 448 143 c 0
557 621 m 0
 977 621 l 0
 971 508 l 0
 687 508 l 0
 680 374 l 0
 935 374 l 0
 929 261 l 0
 673 261 l 0
 665 113 l 0
 949 113 l 0
 943 0 l 0
 523 0 l 0
 526 52 l 0
 452 -35 235 -41 133 61 c 0
 35 159 19 406 168 555 c 0
 268 655 474 659 554 568 c 0
 557 621 l 0
EndSplineSet
EndChar

StartChar: Acircumflex
Encoding: 194 194 193
Width: 694
VWidth: 0
Flags: HMW
LayerCount: 2
Fore
SplineSet
243 112 m 0
 285 105 372 101 437 164 c 0
 505 232 515 406 449 472 c 0
 411 510 345 522 265 512 c 0
 257 361 l 0
 385 361 l 0
 378 222 l 0
 249 222 l 0
 243 112 l 0
85 0 m 0
 97 222 l 0
 26 222 l 0
 33 361 l 0
 105 361 l 0
 119 622 l 0
 300 636 481 647 589 539 c 0
 687 441 688 214 569 95 c 0
 463 -11 271 -17 85 0 c 0
EndSplineSet
EndChar

StartChar: Atilde
Encoding: 195 195 194
Width: 598
VWidth: 0
Flags: HMW
LayerCount: 2
Fore
SplineSet
390 238 m 0
 415 263 417 312 389 340 c 0
 367 362 295 360 252 355 c 0
 245 214 l 0
 262 211 354 202 390 238 c 0
524 163 m 0
 456 95 334 96 238 103 c 0
 233 0 l 0
 81 0 l 0
 115 621 l 0
 267 621 l 0
 259 471 l 0
 382 471 476 459 530 405 c 0
 595 340 580 221 524 163 c 0
EndSplineSet
EndChar

StartChar: Aring
Encoding: 197 197 195
Width: 717
VWidth: 0
Flags: HMW
LayerCount: 2
Fore
SplineSet
515 370 m 0
 523 511 l 0
 258 511 l 0
 250 370 l 0
 515 370 l 0
526 561 m 0
 529 621 l 0
 681 621 l 0
 678 561 l 0
 726 561 l 0
 723 511 l 0
 675 511 l 0
 647 0 l 0
 495 0 l 0
 509 257 l 0
 244 257 l 0
 232 0 l 0
 78 0 l 0
 106 511 l 0
 58 511 l 0
 61 561 l 0
 109 561 l 0
 112 621 l 0
 264 621 l 0
 261 561 l 0
 526 561 l 0
EndSplineSet
EndChar

StartChar: AE
Encoding: 198 198 196
Width: 561
VWidth: 0
Flags: HMW
LayerCount: 2
Fore
SplineSet
84 0 m 0
 98 252 l 0
 33 233 l 0
 37 303 l 0
 101 322 l 0
 118 621 l 0
 270 621 l 0
 256 362 l 0
 384 400 l 0
 380 330 l 0
 252 292 l 0
 242 113 l 0
 524 113 l 0
 518 0 l 0
 84 0 l 0
EndSplineSet
EndChar

StartChar: Ccedilla
Encoding: 199 199 197
Width: 757
VWidth: 0
Flags: HMW
LayerCount: 2
Fore
SplineSet
128 96 m 0
 68 182 41 406 190 555 c 0
 290 655 516 659 613 568 c 0
 706 659 l 0
 767 613 l 0
 658 507 l 0
 707 420 731 210 590 69 c 0
 480 -41 276 -33 180 40 c 0
 101 -36 l 0
 43 12 l 0
 128 96 l 0
282 140 m 0
 324 90 414 87 470 143 c 0
 516 189 541 291 528 379 c 0
 282 140 l 0
251 216 m 0
 501 460 l 0
 454 524 359 522 305 468 c 0
 245 408 237 276 251 216 c 0
EndSplineSet
EndChar

StartChar: Egrave
Encoding: 200 200 198
Width: 491
VWidth: 0
Flags: HMW
LayerCount: 2
Fore
SplineSet
174 0 m 0
 194 356 l 0
 114 356 l 0
 119 451 l 0
 199 451 l 0
 202 508 l 0
 42 508 l 0
 48 621 l 0
 520 621 l 0
 514 508 l 0
 354 508 l 0
 351 451 l 0
 431 451 l 0
 426 356 l 0
 346 356 l 0
 326 0 l 0
 174 0 l 0
EndSplineSet
EndChar

StartChar: Ecircumflex
Encoding: 202 202 199
Width: 580
VWidth: 0
Flags: HMW
LayerCount: 2
Fore
SplineSet
142 56 m 0
 33 165 39 432 159 552 c 0
 269 662 492 667 588 527 c 0
 521 440 l 0
 467 520 341 540 271 470 c 0
 192 391 198 206 258 146 c 0
 316 88 434 96 520 194 c 0
 576 98 l 0
 527 36 428 -14 343 -14 c 0
 334 -53 l 0
 422 -53 444 -143 394 -192 c 0
 343 -243 209 -241 154 -211 c 0
 167 -144 l 0
 333 -212 342 -71 261 -94 c 0
 246 -67 l 0
 263 -7 l 0
 216 1 171 27 142 56 c 0
EndSplineSet
EndChar

StartChar: Edieresis
Encoding: 203 203 200
Width: 672
VWidth: 0
Flags: HMW
LayerCount: 2
Fore
SplineSet
343 -12 m 0
 334 -53 l 0
 422 -53 444 -143 394 -192 c 0
 343 -243 209 -241 154 -211 c 0
 167 -144 l 0
 333 -212 342 -71 261 -94 c 0
 246 -67 l 0
 263 -8 l 0
 213 2 170 23 133 60 c 0
 23 170 21 409 149 537 c 0
 283 671 539 659 631 538 c 0
 557 440 l 0
 484 533 357 543 285 471 c 0
 185 371 179 95 351 95 c 0
 415 95 473 139 480 216 c 0
 344 216 l 0
 351 329 l 0
 624 329 l 0
 602 -74 l 0
 468 -74 l 0
 474 33 l 0
 431 3 390 -10 343 -12 c 0
EndSplineSet
EndChar

StartChar: Eth
Encoding: 208 208 205
Width: 492
VWidth: 0
Flags: HMW
LayerCount: 2
Fore
SplineSet
279 -12 m 0
 270 -53 l 0
 358 -53 380 -143 330 -192 c 0
 279 -243 145 -241 90 -211 c 0
 103 -144 l 0
 269 -212 278 -71 197 -94 c 0
 182 -67 l 0
 198 -10 l 0
 141 -3 79 16 29 39 c 0
 50 152 l 0
 234 59 314 92 314 149 c 0
 314 246 69 287 69 462 c 0
 69 639 289 672 478 592 c 0
 467 467 l 0
 340 535 237 533 237 454 c 0
 237 364 472 324 472 164 c 0
 472 37 360 -8 279 -12 c 0
EndSplineSet
EndChar

StartChar: Ntilde
Encoding: 209 209 206
Width: 491
VWidth: 0
Flags: HMW
LayerCount: 2
Fore
SplineSet
326 0 m 0
 294 0 l 0
 282 -53 l 0
 370 -53 392 -143 342 -192 c 0
 291 -243 157 -241 102 -211 c 0
 115 -144 l 0
 281 -212 290 -71 209 -94 c 0
 194 -67 l 0
 213 0 l 0
 174 0 l 0
 202 508 l 0
 42 508 l 0
 48 621 l 0
 520 621 l 0
 514 508 l 0
 354 508 l 0
 326 0 l 0
EndSplineSet
EndChar

StartChar: Ograve
Encoding: 210 210 207
Width: 0
VWidth: 0
Flags: HMW
LayerCount: 2
Fore
SplineSet
279 -175 m 0
 237 -217 128 -222 71 -193 c 0
 82 -135 l 0
 216 -195 238 -75 167 -92 c 0
 153 -67 l 0
 170 0 l 0
 239 0 l 0
 226 -57 l 0
 303 -57 319 -133 279 -175 c 0
EndSplineSet
EndChar

StartChar: Oacute
Encoding: 211 211 208
Width: 627
VWidth: 0
Flags: HMW
LayerCount: 2
Fore
SplineSet
272 273 m 0
 389 273 l 0
 340 429 l 0
 272 273 l 0
627 0 m 0
 608 0 l 0
 487 -53 517 -174 605 -97 c 0
 650 -153 l 0
 581 -225 484 -212 444 -172 c 0
 395 -123 409 -39 489 0 c 0
 474 0 l 0
 424 160 l 0
 223 160 l 0
 153 0 l 0
 0 0 l 0
 286 621 l 0
 425 621 l 0
 627 0 l 0
EndSplineSet
EndChar

StartChar: Ocircumflex
Encoding: 212 212 209
Width: 475
VWidth: 0
Flags: HMW
LayerCount: 2
Fore
SplineSet
281 0 m 0
 72 0 l 0
 106 621 l 0
 478 621 l 0
 472 508 l 0
 252 508 l 0
 245 374 l 0
 436 374 l 0
 430 261 l 0
 238 261 l 0
 230 113 l 0
 450 113 l 0
 444 0 l 0
 400 0 l 0
 279 -53 309 -174 397 -97 c 0
 442 -153 l 0
 373 -225 276 -212 236 -172 c 0
 187 -123 201 -39 281 0 c 0
EndSplineSet
EndChar

StartChar: Otilde
Encoding: 213 213 210
Width: 270
VWidth: 0
Flags: HMW
LayerCount: 2
Fore
SplineSet
214 0 m 0
 200 0 l 0
 79 -53 109 -174 197 -97 c 0
 242 -153 l 0
 173 -225 76 -212 36 -172 c 0
 -13 -123 1 -39 81 0 c 0
 62 0 l 0
 96 621 l 0
 248 621 l 0
 214 0 l 0
EndSplineSet
EndChar

StartChar: Odieresis
Encoding: 214 214 211
Width: 717
VWidth: 0
Flags: HMW
LayerCount: 2
Fore
SplineSet
412 -11 m 0
 317 -64 345 -170 429 -97 c 0
 474 -153 l 0
 405 -225 308 -212 268 -172 c 0
 219 -123 237 -42 298 -9 c 0
 249 -1 194 17 159 52 c 0
 101 110 91 181 96 274 c 0
 115 621 l 0
 267 621 l 0
 247 254 l 0
 241 148 299 104 370 104 c 0
 470 104 504 180 509 270 c 0
 528 621 l 0
 680 621 l 0
 661 274 l 0
 656 186 634 110 583 59 c 0
 544 20 477 -4 412 -11 c 0
EndSplineSet
EndChar

StartChar: Oslash
Encoding: 216 216 212
Width: 711
VWidth: 0
Flags: HMW
LayerCount: 2
Fore
SplineSet
509 0 m 0
 526 311 l 0
 712 311 l 0
 709 254 l 0
 599 254 l 0
 595 177 l 0
 691 177 l 0
 688 120 l 0
 592 120 l 0
 585 0 l 0
 509 0 l 0
272 0 m 0
 289 311 l 0
 475 311 l 0
 472 254 l 0
 362 254 l 0
 358 177 l 0
 454 177 l 0
 451 120 l 0
 355 120 l 0
 348 0 l 0
 272 0 l 0
36 0 m 0
 53 311 l 0
 239 311 l 0
 236 254 l 0
 126 254 l 0
 123 187 l 0
 218 187 l 0
 215 131 l 0
 119 131 l 0
 115 57 l 0
 225 57 l 0
 222 0 l 0
 36 0 l 0
EndSplineSet
EndChar

StartChar: Udieresis
Encoding: 220 220 213
Width: 350
VWidth: 0
Flags: HMW
LayerCount: 2
Fore
SplineSet
156 266 m 0
 125 297 125 352 156 383 c 0
 187 413 241 413 272 383 c 0
 303 352 303 297 272 266 c 0
 241 235 187 235 156 266 c 0
261 198 m 0
 245 -235 l 0
 113 -235 l 0
 148 198 l 0
 261 198 l 0
EndSplineSet
EndChar

StartChar: Yacute
Encoding: 221 221 214
Width: 289
VWidth: 0
Flags: HMW
LayerCount: 2
Fore
SplineSet
219 -34 m 0
 210 -209 73 -264 -102 -223 c 0
 -95 -127 l 0
 -17 -141 77 -148 83 -27 c 0
 108 440 l 0
 244 440 l 0
 219 -34 l 0
EndSplineSet
EndChar

StartChar: Thorn
Encoding: 222 222 215
Width: 590
VWidth: 0
Flags: HMW
LayerCount: 2
Fore
SplineSet
573 17 m 0
 533 -6 366 -49 306 60 c 0
 224 210 l 0
 212 0 l 0
 76 0 l 0
 101 440 l 0
 237 440 l 0
 229 298 l 0
 396 440 l 0
 592 440 l 0
 353 258 l 0
 423 138 l 0
 468 60 546 91 578 105 c 0
 573 17 l 0
EndSplineSet
EndChar

StartChar: germandbls
Encoding: 223 223 216
Width: 582
VWidth: 0
Flags: HMW
LayerCount: 2
Fore
SplineSet
150 -166 m 0
 84 -232 -37 -243 -95 -222 c 0
 -87 -128 l 0
 -39 -137 19 -135 57 -97 c 0
 109 -45 109 141 117 345 c 0
 37 345 l 0
 42 440 l 0
 120 440 l 0
 125 511 120 589 169 638 c 0
 239 708 386 707 444 649 c 0
 510 583 492 443 468 413 c 0
 433 399 412 384 412 353 c 0
 412 284 564 273 564 131 c 0
 564 -23 368 -40 256 13 c 0
 290 113 l 0
 359 84 423 92 423 144 c 0
 423 212 293 190 293 337 c 0
 293 393 317 437 363 457 c 0
 371 474 381 527 351 557 c 0
 331 577 290 574 269 553 c 0
 206 490 292 -24 150 -166 c 0
EndSplineSet
EndChar

StartChar: agrave
Encoding: 224 224 217
Width: 805
VWidth: 0
Flags: HMW
LayerCount: 2
Fore
SplineSet
650 312 m 0
 650 364 553 370 523 260 c 0
 585 252 650 269 650 312 c 0
222 127 m 0
 259 90 352 120 357 208 c 0
 363 325 l 0
 334 334 282 338 244 300 c 0
 202 258 186 163 222 127 c 0
478 388 m 0
 546 472 694 466 752 408 c 0
 794 366 798 287 746 235 c 0
 684 173 582 165 510 169 c 0
 520 62 627 72 738 134 c 0
 735 28 l 0
 647 -28 470 -41 407 71 c 0
 320 -34 178 -33 114 31 c 0
 48 97 42 276 142 376 c 0
 225 459 378 465 481 435 c 0
 478 388 l 0
EndSplineSet
EndChar

StartChar: aacute
Encoding: 225 225 218
Width: 820
VWidth: 0
Flags: HMW
LayerCount: 2
Fore
SplineSet
666 312 m 0
 666 364 569 370 539 260 c 0
 601 252 666 269 666 312 c 0
243 307 m 0
 196 260 199 166 235 130 c 0
 267 98 331 103 361 133 c 0
 400 172 406 271 367 310 c 0
 337 340 273 337 243 307 c 0
449 40 m 0
 359 -31 202 -33 123 44 c 0
 45 122 46 296 137 385 c 0
 225 473 414 475 477 380 c 0
 556 475 710 466 768 408 c 0
 810 366 814 287 762 235 c 0
 700 173 598 165 526 169 c 0
 536 62 643 72 754 134 c 0
 751 28 l 0
 675 -18 526 -40 449 40 c 0
EndSplineSet
EndChar

StartChar: acircumflex
Encoding: 226 226 219
Width: 565
VWidth: 0
Flags: HMW
LayerCount: 2
Fore
SplineSet
135 385 m 0
 207 457 324 457 356 445 c 0
 346 473 325 503 308 523 c 0
 210 489 l 0
 158 557 l 0
 240 585 l 0
 218 601 195 614 168 627 c 0
 230 699 l 0
 282 683 326 655 363 628 c 0
 458 661 l 0
 510 593 l 0
 426 564 l 0
 530 448 581 175 461 55 c 0
 372 -36 200 -33 121 44 c 0
 43 122 44 296 135 385 c 0
241 307 m 0
 194 260 197 166 233 130 c 0
 265 98 329 103 359 133 c 0
 398 172 404 271 365 310 c 0
 335 340 271 337 241 307 c 0
EndSplineSet
EndChar

StartChar: atilde
Encoding: 227 227 220
Width: 573
VWidth: 0
Flags: HMW
LayerCount: 2
Fore
SplineSet
118 686 m 0
 254 686 l 0
 238 402 l 0
 304 464 411 471 478 404 c 0
 567 315 540 128 457 45 c 0
 381 -31 273 -27 217 21 c 0
 203 -227 l 0
 67 -227 l 0
 118 686 l 0
369 304 m 0
 344 329 291 328 263 300 c 0
 227 264 227 222 223 130 c 0
 260 94 323 100 359 136 c 0
 394 171 408 265 369 304 c 0
EndSplineSet
EndChar

StartChar: aring
Encoding: 229 229 221
Width: 574
VWidth: 0
Flags: HMW
LayerCount: 2
Fore
SplineSet
76 0 m 0
 104 506 l 0
 52 506 l 0
 56 581 l 0
 108 581 l 0
 114 686 l 0
 250 686 l 0
 244 581 l 0
 372 581 l 0
 368 506 l 0
 240 506 l 0
 234 404 l 0
 271 434 314 451 364 451 c 0
 438 451 497 401 491 289 c 0
 484 156 l 0
 478 49 546 75 582 97 c 0
 577 12 l 0
 550 -4 517 -11 477 -11 c 0
 378 -11 341 27 347 139 c 0
 354 268 l 0
 357 320 336 341 303 341 c 0
 247 341 229 290 226 234 c 0
 212 0 l 0
 76 0 l 0
EndSplineSet
EndChar

StartChar: ae
Encoding: 230 230 222
Width: 311
VWidth: 0
Flags: HMW
LayerCount: 2
Fore
SplineSet
222 156 m 0
 216 49 283 75 319 97 c 0
 314 12 l 0
 287 -4 255 -11 215 -11 c 0
 116 -11 79 27 85 139 c 0
 94 291 l 0
 32 270 l 0
 36 346 l 0
 98 367 l 0
 115 686 l 0
 251 686 l 0
 235 405 l 0
 322 435 l 0
 318 359 l 0
 231 329 l 0
 222 156 l 0
EndSplineSet
EndChar

StartChar: ccedilla
Encoding: 231 231 223
Width: 578
VWidth: 0
Flags: HMW
LayerCount: 2
Fore
SplineSet
242 122 m 0
 269 102 328 103 358 133 c 0
 393 168 392 234 388 258 c 0
 242 122 l 0
100 71 m 0
 50 136 43 296 134 385 c 0
 222 473 388 466 458 408 c 0
 523 468 l 0
 567 426 l 0
 499 362 l 0
 544 287 546 141 460 55 c 0
 371 -36 210 -27 142 27 c 0
 80 -31 l 0
 35 10 l 0
 100 71 l 0
210 175 m 0
 360 314 l 0
 329 338 270 337 240 307 c 0
 205 272 199 211 210 175 c 0
EndSplineSet
EndChar

StartChar: egrave
Encoding: 232 232 224
Width: 381
VWidth: 0
Flags: HMW
LayerCount: 2
Fore
SplineSet
240 171 m 0
 234 62 307 77 380 116 c 0
 374 16 l 0
 341 -4 299 -14 252 -14 c 0
 133 -14 96 32 103 153 c 0
 106 202 l 0
 42 202 l 0
 47 297 l 0
 111 297 l 0
 114 345 l 0
 50 345 l 0
 55 440 l 0
 119 440 l 0
 125 551 l 0
 261 551 l 0
 255 440 l 0
 393 440 l 0
 388 345 l 0
 250 345 l 0
 247 297 l 0
 385 297 l 0
 380 202 l 0
 242 202 l 0
 240 171 l 0
EndSplineSet
EndChar

StartChar: ecircumflex
Encoding: 234 234 225
Width: 449
VWidth: 0
Flags: HMW
LayerCount: 2
Fore
SplineSet
287 -13 m 0
 280 -43 l 0
 357 -43 373 -119 333 -161 c 0
 291 -203 182 -208 125 -179 c 0
 136 -121 l 0
 270 -181 292 -61 221 -78 c 0
 207 -53 l 0
 218 -8 l 0
 178 -1 141 21 118 44 c 0
 46 116 43 298 133 388 c 0
 221 476 381 459 434 417 c 0
 406 303 l 0
 359 333 277 340 235 298 c 0
 193 256 194 168 231 131 c 0
 273 89 353 97 414 136 c 0
 418 21 l 0
 378 0 332 -11 287 -13 c 0
EndSplineSet
EndChar

StartChar: eth
Encoding: 240 240 231
Width: 459
VWidth: 0
Flags: HMW
LayerCount: 2
Fore
SplineSet
180 -12 m 0
 125 -5 91 4 47 21 c 0
 55 131 l 0
 166 74 271 61 271 113 c 0
 271 169 67 165 67 312 c 0
 67 488 341 461 422 421 c 0
 406 320 l 0
 329 356 216 370 216 322 c 0
 216 265 419 266 419 130 c 0
 419 22 313 -9 249 -12 c 0
 242 -43 l 0
 319 -43 335 -119 295 -161 c 0
 253 -203 144 -208 87 -179 c 0
 98 -121 l 0
 232 -181 254 -61 183 -78 c 0
 169 -53 l 0
 180 -12 l 0
EndSplineSet
EndChar

StartChar: ntilde
Encoding: 241 241 232
Width: 381
VWidth: 0
Flags: HMW
LayerCount: 2
Fore
SplineSet
181 -6 m 0
 129 9 97 44 103 153 c 0
 114 345 l 0
 50 345 l 0
 55 440 l 0
 119 440 l 0
 125 551 l 0
 261 551 l 0
 255 440 l 0
 393 440 l 0
 388 345 l 0
 250 345 l 0
 240 171 l 0
 234 62 307 77 380 116 c 0
 374 16 l 0
 341 -4 302 -14 249 -14 c 0
 242 -43 l 0
 319 -43 335 -119 295 -161 c 0
 253 -203 144 -208 87 -179 c 0
 98 -121 l 0
 232 -181 254 -61 183 -78 c 0
 169 -53 l 0
 181 -6 l 0
EndSplineSet
EndChar

StartChar: ograve
Encoding: 242 242 233
Width: 0
VWidth: 0
Flags: HMW
LayerCount: 2
Fore
SplineSet
205 -97 m 0
 250 -153 l 0
 181 -225 84 -212 44 -172 c 0
 -5 -123 -7 -15 171 39 c 0
 209 0 l 0
 87 -51 117 -174 205 -97 c 0
EndSplineSet
EndChar

StartChar: oacute
Encoding: 243 243 234
Width: 567
VWidth: 0
Flags: HMW
LayerCount: 2
Fore
SplineSet
223 127 m 0
 260 90 353 120 358 208 c 0
 364 325 l 0
 335 334 283 338 245 300 c 0
 203 258 187 163 223 127 c 0
540 0 m 0
 419 -53 449 -174 537 -97 c 0
 582 -153 l 0
 513 -225 416 -212 376 -172 c 0
 327 -123 341 -39 421 0 c 0
 398 11 378 28 372 58 c 0
 313 -32 179 -33 115 31 c 0
 49 97 43 276 143 376 c 0
 226 459 380 469 506 428 c 0
 491 157 l 0
 487 94 511 73 575 99 c 0
 570 14 l 0
 540 0 l 0
EndSplineSet
EndChar

StartChar: ocircumflex
Encoding: 244 244 235
Width: 491
VWidth: 0
Flags: HMW
LayerCount: 2
Fore
SplineSet
343 312 m 0
 343 364 246 370 216 260 c 0
 278 252 343 269 343 312 c 0
219 -8 m 0
 179 0 149 13 120 42 c 0
 42 120 50 288 140 378 c 0
 237 475 387 466 445 408 c 0
 487 366 491 287 439 235 c 0
 377 173 275 165 203 169 c 0
 213 62 320 72 431 134 c 0
 428 28 l 0
 398 11 375 3 343 -5 c 0
 236 -54 261 -174 349 -97 c 0
 394 -153 l 0
 325 -225 228 -212 188 -172 c 0
 139 -123 156 -44 219 -8 c 0
EndSplineSet
EndChar

StartChar: otilde
Encoding: 245 245 236
Width: 305
VWidth: 0
Flags: HMW
LayerCount: 2
Fore
SplineSet
137 0 m 0
 85 22 76 72 79 139 c 0
 95 440 l 0
 231 440 l 0
 216 156 l 0
 210 49 271 77 307 99 c 0
 302 14 l 0
 281 2 262 -5 240 -9 c 0
 139 -62 169 -170 253 -97 c 0
 298 -153 l 0
 229 -225 132 -212 92 -172 c 0
 43 -123 57 -39 137 0 c 0
233 627 m 0
 264 598 264 549 233 520 c 0
 202 490 151 490 120 520 c 0
 89 549 89 598 120 627 c 0
 151 657 202 657 233 627 c 0
EndSplineSet
EndChar

StartChar: odieresis
Encoding: 246 246 237
Width: 574
VWidth: 0
Flags: HMW
LayerCount: 2
Fore
SplineSet
432 0 m 0
 412 8 396 28 389 48 c 0
 355 1 286 -14 240 -14 c 0
 98 -14 84 79 89 160 c 0
 97 307 l 0
 101 373 102 401 97 440 c 0
 229 440 l 0
 238 414 237 379 234 323 c 0
 226 180 l 0
 223 137 241 111 280 111 c 0
 312 111 355 131 359 193 c 0
 372 440 l 0
 508 440 l 0
 492 147 l 0
 489 94 504 70 583 100 c 0
 577 11 l 0
 568 7 559 4 551 0 c 0
 430 -53 460 -175 548 -98 c 0
 593 -154 l 0
 524 -226 427 -213 387 -173 c 0
 338 -124 352 -39 432 0 c 0
EndSplineSet
EndChar

StartChar: uacute
Encoding: 250 250 238
Width: 577
VWidth: 0
Flags: HMW
LayerCount: 2
Fore
SplineSet
383 436 m 0
 387 506 l 0
 291 506 l 0
 295 581 l 0
 391 581 l 0
 397 686 l 0
 533 686 l 0
 527 581 l 0
 571 581 l 0
 567 506 l 0
 523 506 l 0
 504 155 l 0
 500 82 532 60 586 96 c 0
 581 19 l 0
 555 0 523 -11 485 -11 c 0
 435 -11 400 6 387 52 c 0
 323 -27 196 -39 118 39 c 0
 49 108 42 279 146 383 c 0
 219 456 316 465 383 436 c 0
248 303 m 0
 203 258 193 164 228 129 c 0
 257 100 309 107 341 139 c 0
 368 166 369 193 377 322 c 0
 345 340 283 338 248 303 c 0
EndSplineSet
EndChar

StartChar: ucircumflex
Encoding: 251 251 239
Width: 500
VWidth: 0
Flags: HMW
LayerCount: 2
Fore
SplineSet
-13 -217 m 0
 -5 -106 l 0
 54 -124 167 -123 175 1 c 0
 191 234 l 0
 91 234 l 0
 96 333 l 0
 198 333 l 0
 207 460 212 528 267 583 c 0
 336 650 475 643 529 603 c 0
 518 495 l 0
 471 534 407 533 370 496 c 0
 346 472 344 418 338 333 c 0
 468 333 l 0
 462 234 l 0
 331 234 l 0
 313 -9 l 0
 298 -210 107 -253 -13 -217 c 0
EndSplineSet
EndChar

StartChar: udieresis
Encoding: 252 252 240
Width: 422
VWidth: 0
Flags: HMW
LayerCount: 2
Fore
SplineSet
250 266 m 0
 219 297 219 352 250 383 c 0
 281 413 335 413 366 383 c 0
 397 352 397 297 366 266 c 0
 335 235 281 235 250 266 c 0
189 -63 m 0
 189 -124 261 -171 410 -102 c 0
 420 -212 l 0
 215 -297 49 -220 49 -65 c 0
 49 34 116 104 232 119 c 0
 238 198 l 0
 363 198 l 0
 351 10 l 0
 307 15 189 20 189 -63 c 0
EndSplineSet
EndChar

StartChar: yacute
Encoding: 253 253 241
Width: 305
VWidth: 0
Flags: HMW
LayerCount: 2
Fore
SplineSet
216 156 m 0
 210 49 271 77 307 99 c 0
 302 14 l 0
 275 -2 249 -11 209 -11 c 0
 110 -11 73 27 79 139 c 0
 95 440 l 0
 231 440 l 0
 216 156 l 0
EndSplineSet
EndChar

StartChar: thorn
Encoding: 254 254 242
Width: 605
VWidth: 0
Flags: HMW
LayerCount: 2
Fore
SplineSet
522 156 m 0
 516 49 577 77 613 99 c 0
 608 14 l 0
 581 -2 555 -11 515 -11 c 0
 416 -11 379 27 385 139 c 0
 401 440 l 0
 537 440 l 0
 522 156 l 0
102 -7 m 0
 122 345 l 0
 39 345 l 0
 45 440 l 0
 127 440 l 0
 132 511 128 588 183 643 c 0
 259 719 430 705 510 645 c 0
 505 527 l 0
 422 600 327 601 296 570 c 0
 267 541 266 493 263 440 c 0
 365 440 l 0
 359 345 l 0
 258 345 l 0
 238 -6 l 0
 224 -263 -10 -252 -96 -222 c 0
 -88 -128 l 0
 -2 -148 95 -135 102 -7 c 0
EndSplineSet
EndChar

StartChar: ydieresis
Encoding: 255 255 243
Width: 624
VWidth: 0
Flags: HMW
LayerCount: 2
Fore
SplineSet
422 549 m 0
 393 580 327 601 296 570 c 0
 267 541 266 493 263 440 c 0
 365 440 l 0
 359 345 l 0
 258 345 l 0
 238 -6 l 0
 224 -263 -10 -252 -96 -222 c 0
 -88 -128 l 0
 -2 -148 95 -135 102 -7 c 0
 122 345 l 0
 39 345 l 0
 45 440 l 0
 127 440 l 0
 132 511 128 588 183 643 c 0
 259 719 398 700 428 659 c 0
 429 686 l 0
 565 686 l 0
 536 156 l 0
 530 49 597 75 633 97 c 0
 628 12 l 0
 601 -4 569 -11 529 -11 c 0
 430 -11 393 27 399 139 c 0
 422 549 l 0
EndSplineSet
EndChar

StartChar: uni0199
Encoding: 409 409 379
Width: 698
VWidth: 0
Flags: HMW
LayerCount: 2
Fore
SplineSet
173 569 m 0
 252 648 448 645 568 610 c 0
 537 496 l 0
 435 528 340 530 302 492 c 0
 270 460 263 378 423 378 c 0
 622 378 l 0
 598 -67 l 0
 446 -67 l 0
 452 41 l 0
 368 -36 194 -32 112 50 c 0
 32 130 36 305 239 336 c 0
 239 338 l 0
 111 386 117 513 173 569 c 0
417 148 m 0
 437 168 460 212 461 265 c 0
 317 265 285 261 251 227 c 0
 225 201 228 159 252 135 c 0
 293 94 371 102 417 148 c 0
EndSplineSet
EndChar

StartChar: uni019A
Encoding: 410 410 380
Width: 590
VWidth: 0
Flags: HMW
LayerCount: 2
Fore
SplineSet
359 -234 m 0
 373 39 l 0
 307 -29 196 -33 129 33 c 0
 53 109 65 280 165 380 c 0
 246 461 407 465 531 432 c 0
 503 -86 l 0
 576 -24 l 0
 632 -108 l 0
 474 -238 l 0
 359 -234 l 0
258 294 m 0
 218 254 209 172 243 138 c 0
 273 108 318 107 354 142 c 0
 381 169 384 246 389 325 c 0
 345 333 292 328 258 294 c 0
EndSplineSet
EndChar

